<?xml version="1.0" encoding="utf-8"?>
<!-- Generator: Adobe Illustrator 24.1.0, SVG Export Plug-In . SVG Version: 6.00 Build 0)  -->
<svg version="1.1" id="Layer_1" xmlns="http://www.w3.org/2000/svg" xmlns:xlink="http://www.w3.org/1999/xlink" x="0px" y="0px"
	 viewBox="0 0 42.76 19.83" style="enable-background:new 0 0 42.76 19.83;" xml:space="preserve">
<style type="text/css">
	.st0{fill:#FFFFFF;}
	.st1{fill:#838383;}
	.st2{fill:#CCCCCC;}
</style>
<g>
	<path class="st0" d="M8.9,4.03H8.55c-0.23,0-0.34-0.27-0.18-0.43l0.25-0.25c0.1-0.1,0.1-0.26,0-0.36L8.07,2.45
		c-0.1-0.1-0.26-0.1-0.36,0L7.47,2.69C7.31,2.85,7.04,2.74,7.04,2.52V2.17c0-0.14-0.11-0.25-0.25-0.25H6.01
		c-0.14,0-0.25,0.11-0.25,0.25v0.35c0,0.23-0.27,0.34-0.43,0.18L5.08,2.45c-0.1-0.1-0.26-0.1-0.36,0L4.18,2.99
		c-0.1,0.1-0.1,0.26,0,0.36L4.42,3.6c0.16,0.16,0.05,0.43-0.18,0.43H3.89c-0.14,0-0.25,0.11-0.25,0.25v0.77
		c0,0.14,0.11,0.25,0.25,0.25h0.35c0.23,0,0.34,0.27,0.18,0.43L4.18,5.99c-0.1,0.1-0.1,0.26,0,0.36l0.55,0.55
		c0.1,0.1,0.26,0.1,0.36,0l0.25-0.25C5.49,6.49,5.76,6.6,5.76,6.83v0.35c0,0.14,0.11,0.25,0.25,0.25h0.77
		c0.14,0,0.25-0.11,0.25-0.25V6.83c0-0.23,0.27-0.34,0.43-0.18l0.25,0.25c0.1,0.1,0.26,0.1,0.36,0l0.55-0.55
		c0.1-0.1,0.1-0.26,0-0.36L8.37,5.74C8.21,5.58,8.33,5.31,8.55,5.31H8.9c0.14,0,0.25-0.11,0.25-0.25V4.28
		C9.15,4.14,9.04,4.03,8.9,4.03z M6.4,5.97c-0.71,0-1.29-0.58-1.29-1.29S5.68,3.38,6.4,3.38s1.29,0.58,1.29,1.29S7.11,5.97,6.4,5.97
		z"/>
	<path class="st0" d="M6.78,7.49H6.01c-0.17,0-0.32-0.14-0.32-0.32V6.83c0-0.09-0.06-0.15-0.12-0.18C5.52,6.63,5.44,6.63,5.37,6.69
		L5.12,6.94C5.07,7,4.99,7.03,4.9,7.03C4.82,7.03,4.74,7,4.68,6.94L4.13,6.39C4.07,6.33,4.04,6.25,4.04,6.17S4.07,6,4.13,5.94
		L4.38,5.7c0.07-0.07,0.06-0.15,0.04-0.21C4.39,5.43,4.34,5.37,4.24,5.37H3.89c-0.17,0-0.32-0.14-0.32-0.32V4.28
		c0-0.17,0.14-0.32,0.32-0.32h0.35c0.09,0,0.15-0.06,0.18-0.12c0.02-0.06,0.02-0.14-0.04-0.21L4.13,3.4c-0.12-0.12-0.12-0.32,0-0.45
		L4.68,2.4C4.74,2.34,4.82,2.31,4.9,2.31c0.08,0,0.16,0.03,0.22,0.09l0.25,0.25c0.07,0.07,0.15,0.06,0.21,0.04
		C5.63,2.67,5.7,2.61,5.7,2.52V2.17c0-0.17,0.14-0.32,0.32-0.32h0.77c0.17,0,0.32,0.14,0.32,0.32v0.35c0,0.09,0.06,0.15,0.12,0.18
		c0.06,0.02,0.14,0.03,0.21-0.04L7.67,2.4C7.79,2.28,8,2.28,8.12,2.4l0.55,0.55c0.12,0.12,0.12,0.32,0,0.45L8.42,3.64
		C8.35,3.71,8.35,3.79,8.38,3.85C8.4,3.91,8.46,3.97,8.55,3.97H8.9c0.17,0,0.32,0.14,0.32,0.32v0.77c0,0.17-0.14,0.32-0.32,0.32
		H8.55c-0.09,0-0.15,0.06-0.18,0.12C8.35,5.55,8.35,5.63,8.42,5.7l0.25,0.25c0.12,0.12,0.12,0.32,0,0.45L8.12,6.94
		C8,7.06,7.79,7.06,7.67,6.94L7.43,6.69C7.36,6.63,7.27,6.63,7.22,6.65C7.16,6.67,7.1,6.73,7.1,6.83v0.35
		C7.1,7.35,6.96,7.49,6.78,7.49z M5.5,6.51c0.04,0,0.08,0.01,0.12,0.02c0.12,0.05,0.2,0.16,0.2,0.29v0.35c0,0.1,0.09,0.19,0.19,0.19
		h0.77c0.1,0,0.19-0.09,0.19-0.19V6.83c0-0.13,0.07-0.24,0.2-0.29C7.29,6.48,7.42,6.51,7.51,6.6l0.25,0.25
		c0.07,0.07,0.19,0.07,0.27,0L8.58,6.3c0.07-0.07,0.07-0.19,0-0.27L8.33,5.79C8.24,5.7,8.21,5.56,8.26,5.44
		c0.05-0.12,0.16-0.2,0.29-0.2H8.9c0.1,0,0.19-0.09,0.19-0.19V4.28c0-0.1-0.09-0.19-0.19-0.19H8.55c-0.13,0-0.24-0.07-0.29-0.2
		C8.21,3.78,8.24,3.65,8.33,3.55l0.25-0.25c0.07-0.07,0.07-0.19,0-0.27L8.03,2.49c-0.07-0.07-0.19-0.07-0.27,0L7.51,2.74
		C7.42,2.83,7.29,2.86,7.17,2.81c-0.12-0.05-0.2-0.16-0.2-0.29V2.17c0-0.1-0.09-0.19-0.19-0.19H6.01c-0.1,0-0.19,0.09-0.19,0.19
		v0.35c0,0.13-0.07,0.24-0.2,0.29C5.51,2.86,5.37,2.83,5.28,2.74L5.04,2.49c-0.07-0.07-0.2-0.07-0.27,0L4.22,3.04
		c-0.07,0.07-0.07,0.19,0,0.27l0.25,0.25C4.56,3.65,4.58,3.78,4.53,3.9c-0.05,0.12-0.16,0.2-0.29,0.2H3.89
		c-0.1,0-0.19,0.09-0.19,0.19v0.77c0,0.1,0.09,0.19,0.19,0.19h0.35c0.13,0,0.24,0.07,0.29,0.2C4.58,5.56,4.56,5.7,4.47,5.79
		L4.22,6.03C4.18,6.07,4.16,6.12,4.16,6.17s0.02,0.1,0.06,0.13l0.55,0.55c0.07,0.07,0.2,0.07,0.27,0L5.28,6.6
		C5.34,6.54,5.42,6.51,5.5,6.51z M6.4,6.03c-0.75,0-1.36-0.61-1.36-1.36c0-0.75,0.61-1.36,1.36-1.36c0.75,0,1.36,0.61,1.36,1.36
		C7.76,5.42,7.15,6.03,6.4,6.03z M6.4,3.44c-0.68,0-1.23,0.55-1.23,1.23c0,0.68,0.55,1.23,1.23,1.23c0.68,0,1.23-0.55,1.23-1.23
		C7.63,3.99,7.08,3.44,6.4,3.44z"/>
</g>
<g>
	<path class="st1" d="M6.73,13.65H6.59c-0.09,0-0.14-0.11-0.07-0.18l0.1-0.1c0.04-0.04,0.04-0.11,0-0.15L6.39,13
		c-0.04-0.04-0.11-0.04-0.15,0l-0.1,0.1c-0.07,0.07-0.18,0.02-0.18-0.07v-0.14c0-0.06-0.05-0.1-0.1-0.1H5.54
		c-0.06,0-0.1,0.05-0.1,0.1v0.14c0,0.09-0.11,0.14-0.18,0.07L5.16,13c-0.04-0.04-0.11-0.04-0.15,0l-0.23,0.23
		c-0.04,0.04-0.04,0.11,0,0.15l0.1,0.1c0.07,0.07,0.02,0.18-0.07,0.18H4.67c-0.06,0-0.1,0.05-0.1,0.1v0.32c0,0.06,0.05,0.1,0.1,0.1
		h0.14c0.09,0,0.14,0.11,0.07,0.18l-0.1,0.1c-0.04,0.04-0.04,0.11,0,0.15l0.23,0.23c0.04,0.04,0.11,0.04,0.15,0l0.1-0.1
		c0.07-0.07,0.18-0.02,0.18,0.07v0.14c0,0.06,0.05,0.1,0.1,0.1h0.32c0.06,0,0.1-0.05,0.1-0.1v-0.14c0-0.09,0.11-0.14,0.18-0.07
		l0.1,0.1c0.04,0.04,0.11,0.04,0.15,0l0.23-0.23c0.04-0.04,0.04-0.11,0-0.15l-0.1-0.1c-0.07-0.07-0.02-0.18,0.07-0.18h0.14
		c0.06,0,0.1-0.05,0.1-0.1v-0.32C6.84,13.7,6.79,13.65,6.73,13.65z M5.7,14.45c-0.29,0-0.53-0.24-0.53-0.53s0.24-0.53,0.53-0.53
		c0.29,0,0.53,0.24,0.53,0.53S6,14.45,5.7,14.45z"/>
	<path class="st0" d="M5.86,15.09H5.54c-0.08,0-0.14-0.06-0.14-0.14v-0.14c0-0.04-0.02-0.06-0.04-0.07
		c-0.02-0.01-0.05-0.01-0.08,0.02l-0.1,0.1c-0.05,0.05-0.14,0.05-0.19,0l-0.23-0.23c-0.03-0.03-0.04-0.06-0.04-0.1
		c0-0.04,0.01-0.07,0.04-0.1l0.1-0.1c0.03-0.03,0.02-0.06,0.02-0.08c-0.01-0.02-0.03-0.04-0.07-0.04H4.67
		c-0.08,0-0.14-0.06-0.14-0.14v-0.32c0-0.07,0.06-0.14,0.14-0.14h0.14c0.04,0,0.06-0.02,0.07-0.04c0.01-0.02,0.01-0.05-0.02-0.08
		l-0.1-0.1c-0.03-0.03-0.04-0.06-0.04-0.1c0-0.04,0.01-0.07,0.04-0.1l0.23-0.23c0.05-0.05,0.14-0.05,0.19,0l0.1,0.1
		c0.03,0.03,0.06,0.02,0.08,0.02c0.02-0.01,0.04-0.03,0.04-0.07v-0.14c0-0.07,0.06-0.14,0.14-0.14h0.32c0.07,0,0.14,0.06,0.14,0.14
		v0.14c0,0.04,0.02,0.06,0.04,0.07c0.02,0.01,0.05,0.01,0.08-0.02l0.1-0.1c0.05-0.05,0.14-0.05,0.19,0l0.23,0.23
		c0.05,0.05,0.05,0.14,0,0.19l-0.1,0.1c-0.03,0.03-0.02,0.06-0.02,0.08c0.01,0.02,0.03,0.04,0.07,0.04h0.14
		c0.07,0,0.14,0.06,0.14,0.14v0.32c0,0.08-0.06,0.14-0.14,0.14H6.59c-0.04,0-0.06,0.02-0.07,0.04c-0.01,0.02-0.01,0.05,0.02,0.08
		l0.1,0.1c0.05,0.05,0.05,0.14,0,0.19l-0.23,0.23c-0.05,0.05-0.14,0.05-0.19,0l-0.1-0.1c-0.03-0.03-0.06-0.02-0.08-0.02
		C6.02,14.75,6,14.77,6,14.81v0.14C6,15.02,5.94,15.09,5.86,15.09z M5.33,14.67c0.02,0,0.04,0,0.05,0.01
		c0.05,0.02,0.08,0.07,0.08,0.13v0.14c0,0.04,0.03,0.07,0.07,0.07h0.32c0.04,0,0.07-0.03,0.07-0.07v-0.14c0-0.06,0.03-0.1,0.08-0.13
		c0.05-0.02,0.11-0.01,0.15,0.03l0.1,0.1c0.03,0.03,0.08,0.03,0.1,0l0.23-0.23c0.03-0.03,0.03-0.07,0-0.1l-0.1-0.1
		c-0.04-0.04-0.05-0.1-0.03-0.15c0.02-0.05,0.07-0.08,0.13-0.08h0.14c0.04,0,0.07-0.03,0.07-0.07v-0.32c0-0.04-0.03-0.07-0.07-0.07
		H6.59c-0.06,0-0.1-0.03-0.13-0.08c-0.02-0.05-0.01-0.11,0.03-0.15l0.1-0.1c0.03-0.03,0.03-0.07,0-0.1l-0.23-0.23
		c-0.03-0.03-0.07-0.03-0.1,0l-0.1,0.1c-0.04,0.04-0.1,0.05-0.15,0.03c-0.05-0.02-0.08-0.07-0.08-0.13v-0.14
		c0-0.04-0.03-0.07-0.07-0.07H5.54c-0.04,0-0.07,0.03-0.07,0.07v0.14c0,0.06-0.03,0.1-0.08,0.13c-0.05,0.02-0.11,0.01-0.15-0.03
		l-0.1-0.1c-0.03-0.03-0.07-0.03-0.1,0l-0.23,0.23c-0.01,0.01-0.02,0.03-0.02,0.05c0,0.02,0.01,0.04,0.02,0.05l0.1,0.1
		c0.04,0.04,0.05,0.1,0.03,0.15c-0.02,0.05-0.07,0.08-0.13,0.08H4.67c-0.04,0-0.07,0.03-0.07,0.07v0.32c0,0.04,0.03,0.07,0.07,0.07
		h0.14c0.06,0,0.1,0.03,0.13,0.08c0.02,0.05,0.01,0.11-0.03,0.15l-0.1,0.1c-0.01,0.01-0.02,0.03-0.02,0.05
		c0,0.02,0.01,0.04,0.02,0.05l0.23,0.23c0.03,0.03,0.08,0.03,0.1,0l0.1-0.1C5.26,14.68,5.3,14.67,5.33,14.67z M5.7,14.48
		c-0.31,0-0.57-0.25-0.57-0.56c0-0.31,0.25-0.56,0.57-0.56s0.56,0.25,0.56,0.56C6.27,14.23,6.01,14.48,5.7,14.48z M5.7,13.42
		c-0.28,0-0.5,0.23-0.5,0.5s0.23,0.5,0.5,0.5s0.5-0.23,0.5-0.5S5.98,13.42,5.7,13.42z"/>
</g>
<g>
	<path class="st0" d="M40.91,10.17c0-0.06,0-0.11-0.01-0.16l0.63-0.35c-0.02-0.1-0.05-0.21-0.08-0.31l-0.72,0.01
		c-0.05-0.1-0.1-0.2-0.17-0.29l0.37-0.62c-0.07-0.08-0.14-0.15-0.22-0.22L40.09,8.6C40,8.54,39.91,8.48,39.81,8.44l0.01-0.72
		c-0.1-0.03-0.2-0.06-0.3-0.08l-0.35,0.63c-0.06-0.01-0.11-0.01-0.17-0.01c-0.05,0-0.11,0-0.16,0.01l-0.35-0.63
		c-0.1,0.02-0.2,0.05-0.3,0.08l0.01,0.72c-0.1,0.05-0.2,0.1-0.29,0.17l-0.62-0.37c-0.08,0.07-0.15,0.14-0.22,0.22l0.37,0.62
		c-0.07,0.09-0.12,0.19-0.17,0.29l-0.72-0.01c-0.03,0.1-0.06,0.2-0.08,0.3L37.08,10c0,0.06-0.01,0.11-0.01,0.17s0,0.11,0.01,0.17
		l-0.63,0.35c0.02,0.1,0.05,0.2,0.08,0.3l0.72-0.01c0.05,0.1,0.11,0.2,0.17,0.29l-0.37,0.62c0.07,0.08,0.14,0.15,0.22,0.22
		l0.62-0.37c0.09,0.06,0.19,0.12,0.29,0.17l-0.01,0.72c0.1,0.03,0.2,0.06,0.3,0.08l0.35-0.63c0.05,0,0.11,0.01,0.16,0.01
		c0.06,0,0.12,0,0.17-0.01l0.35,0.63c0.1-0.02,0.21-0.05,0.3-0.08l-0.01-0.72c0.1-0.05,0.2-0.1,0.29-0.17l0.62,0.37
		c0.08-0.07,0.15-0.14,0.22-0.22l-0.37-0.62c0.06-0.09,0.12-0.19,0.17-0.29l0.72,0.01c0.03-0.1,0.06-0.2,0.08-0.31l-0.63-0.35
		C40.9,10.28,40.91,10.23,40.91,10.17z M38.99,11.58c-0.78,0-1.41-0.63-1.41-1.41s0.63-1.41,1.41-1.41s1.41,0.63,1.41,1.41
		S39.77,11.58,38.99,11.58z"/>
	<path class="st0" d="M38.51,12.79l-0.05-0.01c-0.1-0.02-0.21-0.05-0.31-0.08l-0.04-0.01l0.01-0.73c-0.08-0.04-0.16-0.08-0.23-0.13
		l-0.62,0.37l-0.03-0.03c-0.08-0.07-0.16-0.15-0.23-0.23l-0.03-0.03l0.37-0.62c-0.05-0.07-0.1-0.15-0.13-0.23l-0.73,0.01l-0.01-0.04
		c-0.03-0.1-0.06-0.2-0.08-0.31l-0.01-0.05l0.64-0.35c0-0.05,0-0.09,0-0.13s0-0.09,0-0.13l-0.64-0.35l0.01-0.05
		c0.02-0.1,0.05-0.21,0.08-0.31l0.01-0.04l0.73,0.01c0.04-0.08,0.08-0.16,0.13-0.23l-0.37-0.62L37,8.41
		c0.07-0.08,0.15-0.16,0.23-0.23l0.03-0.03l0.62,0.37c0.07-0.05,0.15-0.09,0.23-0.13l-0.01-0.73l0.04-0.01
		c0.1-0.03,0.21-0.06,0.31-0.08l0.05-0.01l0.35,0.64c0.09-0.01,0.17-0.01,0.26,0l0.35-0.64l0.05,0.01c0.1,0.02,0.21,0.05,0.31,0.08
		l0.04,0.01L39.87,8.4c0.08,0.04,0.15,0.08,0.23,0.13l0.62-0.37l0.03,0.03c0.08,0.07,0.16,0.15,0.23,0.23l0.03,0.03l-0.37,0.62
		c0.05,0.07,0.09,0.15,0.13,0.22l0.73-0.01l0.01,0.04c0.03,0.1,0.06,0.21,0.08,0.31l0.01,0.05l-0.64,0.35c0,0.04,0,0.09,0,0.13
		s0,0.09,0,0.13l0.64,0.35l-0.01,0.05c-0.02,0.11-0.05,0.21-0.08,0.31l-0.01,0.04l-0.73-0.01c-0.04,0.08-0.08,0.15-0.13,0.22
		l0.37,0.62l-0.03,0.03c-0.07,0.08-0.15,0.16-0.23,0.23l-0.03,0.03l-0.62-0.37c-0.07,0.05-0.15,0.09-0.23,0.13l0.01,0.73l-0.04,0.01
		c-0.1,0.03-0.21,0.06-0.31,0.08l-0.05,0.01l-0.35-0.64c-0.09,0.01-0.18,0.01-0.26,0L38.51,12.79z M38.24,12.59
		c0.07,0.02,0.14,0.04,0.21,0.05l0.35-0.63l0.04,0c0.11,0.01,0.21,0.01,0.32,0l0.04,0l0.35,0.63c0.07-0.02,0.14-0.03,0.21-0.06
		l-0.01-0.72l0.04-0.02c0.1-0.05,0.19-0.1,0.28-0.16l0.03-0.02l0.61,0.37c0.05-0.05,0.1-0.1,0.15-0.15l-0.37-0.61l0.02-0.03
		c0.06-0.09,0.11-0.18,0.16-0.28l0.02-0.04l0.72,0.01c0.02-0.07,0.04-0.14,0.06-0.21l-0.63-0.35l0-0.04c0-0.05,0.01-0.11,0.01-0.16
		s0-0.11-0.01-0.16l0-0.04l0.63-0.35c-0.02-0.07-0.03-0.14-0.06-0.21l-0.72,0.01l-0.02-0.04c-0.04-0.1-0.1-0.19-0.16-0.28
		l-0.02-0.03l0.37-0.61c-0.05-0.05-0.1-0.1-0.15-0.15l-0.61,0.37l-0.03-0.02c-0.09-0.06-0.18-0.12-0.28-0.16l-0.04-0.02l0.01-0.72
		c-0.07-0.02-0.14-0.04-0.21-0.06L39.2,8.33l-0.04,0c-0.11-0.01-0.22-0.01-0.32,0l-0.04,0L38.44,7.7c-0.07,0.02-0.14,0.03-0.21,0.05
		l0.01,0.72l-0.04,0.02c-0.1,0.05-0.19,0.1-0.28,0.16l-0.03,0.02l-0.61-0.37c-0.05,0.05-0.1,0.1-0.15,0.15l0.37,0.61L37.47,9.1
		c-0.06,0.09-0.12,0.19-0.16,0.28l-0.02,0.04l-0.72-0.01c-0.02,0.07-0.04,0.14-0.05,0.2l0.63,0.35l0,0.04
		c0,0.06-0.01,0.11-0.01,0.16c0,0.05,0,0.11,0.01,0.16l0,0.04l-0.63,0.35c0.02,0.07,0.03,0.14,0.05,0.2l0.72-0.01l0.02,0.04
		c0.05,0.1,0.1,0.19,0.16,0.28l0.02,0.03l-0.37,0.61c0.05,0.05,0.1,0.1,0.15,0.15l0.61-0.37l0.03,0.02
		c0.09,0.06,0.18,0.12,0.28,0.16l0.04,0.02L38.24,12.59z M38.99,11.64c-0.81,0-1.47-0.66-1.47-1.47s0.66-1.47,1.47-1.47
		c0.81,0,1.47,0.66,1.47,1.47S39.8,11.64,38.99,11.64z M38.99,8.83c-0.74,0-1.35,0.6-1.35,1.35s0.6,1.35,1.35,1.35
		c0.74,0,1.35-0.6,1.35-1.35S39.73,8.83,38.99,8.83z"/>
</g>
<g>
	<path class="st2" d="M35.73,5.1c0-0.03,0-0.06,0-0.1l0.37-0.2c-0.01-0.06-0.03-0.12-0.05-0.18l-0.42,0.01
		c-0.03-0.06-0.06-0.11-0.1-0.17l0.22-0.36c-0.04-0.05-0.08-0.09-0.13-0.13l-0.36,0.22c-0.05-0.04-0.11-0.07-0.17-0.1l0.01-0.42
		c-0.06-0.02-0.12-0.04-0.18-0.05L34.72,4c-0.03,0-0.07,0-0.1,0c-0.03,0-0.06,0-0.09,0l-0.2-0.37c-0.06,0.01-0.12,0.03-0.18,0.05
		l0.01,0.42c-0.06,0.03-0.12,0.06-0.17,0.1l-0.36-0.22c-0.05,0.04-0.09,0.08-0.13,0.13l0.22,0.36c-0.04,0.05-0.07,0.11-0.1,0.17
		l-0.42-0.01c-0.02,0.06-0.03,0.12-0.05,0.17l0.37,0.2c0,0.03,0,0.07,0,0.1s0,0.07,0,0.1l-0.37,0.2c0.01,0.06,0.03,0.12,0.05,0.17
		l0.42-0.01c0.03,0.06,0.06,0.12,0.1,0.17L33.5,6.1c0.04,0.05,0.08,0.09,0.13,0.13l0.36-0.22c0.05,0.04,0.11,0.07,0.17,0.1
		l-0.01,0.42c0.06,0.02,0.12,0.03,0.18,0.05l0.2-0.37c0.03,0,0.06,0,0.09,0c0.03,0,0.07,0,0.1,0l0.2,0.37
		c0.06-0.01,0.12-0.03,0.18-0.05l-0.01-0.42c0.06-0.03,0.11-0.06,0.17-0.1l0.36,0.22c0.05-0.04,0.09-0.08,0.13-0.13l-0.22-0.36
		c0.04-0.05,0.07-0.11,0.1-0.17l0.42,0.01c0.02-0.06,0.04-0.12,0.05-0.18l-0.37-0.2C35.73,5.17,35.73,5.14,35.73,5.1z M34.62,5.92
		c-0.45,0-0.82-0.37-0.82-0.82s0.37-0.82,0.82-0.82s0.82,0.37,0.82,0.82S35.07,5.92,34.62,5.92z"/>
	<path class="st0" d="M34.34,6.61l-0.02,0c-0.06-0.01-0.12-0.03-0.18-0.05l-0.02-0.01l0.01-0.42c-0.05-0.02-0.09-0.05-0.14-0.08
		l-0.36,0.22L33.6,6.26c-0.05-0.04-0.09-0.08-0.13-0.13l-0.02-0.02l0.22-0.36c-0.03-0.04-0.06-0.09-0.08-0.14l-0.42,0.01l-0.01-0.02
		c-0.02-0.06-0.04-0.12-0.05-0.18l0-0.02l0.37-0.2c0-0.03,0-0.05,0-0.08s0-0.05,0-0.08l-0.37-0.2l0-0.02
		c0.01-0.06,0.03-0.12,0.05-0.18l0.01-0.02l0.42,0.01c0.02-0.05,0.05-0.1,0.08-0.14L33.46,4.1l0.02-0.02
		c0.04-0.05,0.08-0.09,0.13-0.13l0.02-0.02l0.36,0.22c0.04-0.03,0.09-0.06,0.14-0.08l-0.01-0.42l0.02-0.01
		c0.06-0.02,0.12-0.04,0.18-0.05l0.02,0l0.21,0.37c0.05,0,0.11,0,0.16,0l0.2-0.37l0.02,0c0.06,0.01,0.12,0.03,0.18,0.05l0.02,0.01
		l-0.01,0.42c0.05,0.02,0.09,0.05,0.14,0.08l0.36-0.22l0.02,0.02c0.05,0.04,0.09,0.09,0.13,0.13l0.02,0.02l-0.22,0.36
		c0.03,0.04,0.06,0.09,0.08,0.14l0.42-0.01l0.01,0.02c0.02,0.06,0.04,0.12,0.05,0.18l0,0.02l-0.37,0.21c0,0.03,0,0.05,0,0.08
		s0,0.05,0,0.08l0.37,0.21l0,0.02c-0.01,0.06-0.03,0.12-0.05,0.18l-0.01,0.02l-0.42-0.01c-0.02,0.05-0.05,0.09-0.08,0.14l0.22,0.36
		l-0.02,0.02c-0.04,0.05-0.09,0.09-0.13,0.13l-0.02,0.02l-0.36-0.22c-0.04,0.03-0.09,0.06-0.14,0.08l0.01,0.42l-0.02,0.01
		c-0.06,0.02-0.12,0.04-0.18,0.05l-0.02,0l-0.2-0.37c-0.05,0-0.11,0-0.16,0L34.34,6.61z M34.18,6.51c0.04,0.01,0.08,0.02,0.13,0.03
		l0.2-0.36l0.02,0c0.06,0.01,0.12,0.01,0.19,0l0.02,0l0.2,0.36c0.04-0.01,0.09-0.02,0.13-0.03l-0.01-0.42l0.02-0.01
		c0.06-0.03,0.11-0.06,0.16-0.09l0.02-0.01l0.36,0.21c0.03-0.03,0.06-0.06,0.09-0.09l-0.21-0.36l0.01-0.02
		c0.04-0.05,0.07-0.11,0.09-0.16l0.01-0.02l0.42,0.01c0.01-0.04,0.02-0.09,0.03-0.13l-0.36-0.2l0-0.02c0-0.03,0-0.06,0-0.09
		s0-0.06,0-0.09l0-0.02l0.36-0.2c-0.01-0.04-0.02-0.09-0.03-0.13l-0.42,0.01L35.6,4.65c-0.03-0.06-0.06-0.11-0.09-0.16l-0.01-0.02
		l0.21-0.36c-0.03-0.03-0.06-0.06-0.09-0.09l-0.36,0.21l-0.02-0.01c-0.05-0.04-0.11-0.07-0.16-0.09l-0.02-0.01l0.01-0.42
		c-0.04-0.01-0.09-0.02-0.13-0.03l-0.2,0.36l-0.02,0c-0.06-0.01-0.13-0.01-0.19,0l-0.02,0l-0.2-0.36c-0.04,0.01-0.09,0.02-0.13,0.03
		l0.01,0.42l-0.02,0.01C34.11,4.15,34.05,4.18,34,4.22l-0.02,0.01l-0.36-0.21c-0.03,0.03-0.06,0.06-0.09,0.09l0.21,0.36l-0.01,0.02
		c-0.04,0.05-0.07,0.11-0.1,0.17l-0.01,0.02l-0.42-0.01c-0.01,0.04-0.02,0.08-0.03,0.13l0.36,0.2l0,0.02c0,0.03,0,0.06,0,0.1
		c0,0.03,0,0.06,0,0.1l0,0.02l-0.36,0.2c0.01,0.04,0.02,0.08,0.03,0.13l0.42-0.01l0.01,0.02c0.03,0.06,0.06,0.11,0.1,0.17l0.01,0.02
		L33.53,6.1c0.03,0.03,0.06,0.06,0.09,0.09l0.36-0.21L34,5.99c0.05,0.04,0.11,0.07,0.17,0.09l0.02,0.01L34.18,6.51z M34.62,5.95
		c-0.47,0-0.85-0.38-0.85-0.85s0.38-0.85,0.85-0.85s0.85,0.38,0.85,0.85S35.09,5.95,34.62,5.95z M34.62,4.32
		c-0.43,0-0.79,0.35-0.79,0.79s0.35,0.79,0.79,0.79s0.79-0.35,0.79-0.79S35.05,4.32,34.62,4.32z"/>
</g>
<g>
	<path class="st1" d="M29.62,1.88h-0.22c-0.14,0-0.22-0.17-0.11-0.27l0.16-0.16c0.06-0.06,0.06-0.16,0-0.23l-0.35-0.35
		c-0.06-0.06-0.16-0.06-0.23,0l-0.16,0.16c-0.1,0.1-0.27,0.03-0.27-0.11V0.69c0-0.09-0.07-0.16-0.16-0.16h-0.49
		c-0.09,0-0.16,0.07-0.16,0.16v0.22c0,0.14-0.17,0.22-0.27,0.11l-0.16-0.16c-0.06-0.06-0.16-0.06-0.23,0l-0.35,0.35
		c-0.06,0.06-0.06,0.16,0,0.23l0.16,0.16c0.1,0.1,0.03,0.27-0.11,0.27h-0.22c-0.09,0-0.16,0.07-0.16,0.16v0.49
		c0,0.09,0.07,0.16,0.16,0.16h0.22c0.14,0,0.22,0.17,0.11,0.27l-0.16,0.16c-0.06,0.06-0.06,0.16,0,0.23l0.35,0.35
		c0.06,0.06,0.16,0.06,0.23,0l0.16-0.16c0.1-0.1,0.27-0.03,0.27,0.11v0.22c0,0.09,0.07,0.16,0.16,0.16h0.49
		c0.09,0,0.16-0.07,0.16-0.16V3.66c0-0.14,0.17-0.22,0.27-0.11l0.16,0.16c0.06,0.06,0.16,0.06,0.23,0l0.35-0.35
		c0.06-0.06,0.06-0.16,0-0.23l-0.16-0.16c-0.1-0.1-0.03-0.27,0.11-0.27h0.22c0.09,0,0.16-0.07,0.16-0.16V2.04
		C29.78,1.95,29.7,1.88,29.62,1.88z M28.02,3.11c-0.45,0-0.82-0.37-0.82-0.82s0.37-0.82,0.82-0.82s0.82,0.37,0.82,0.82
		S28.48,3.11,28.02,3.11z"/>
	<path class="st0" d="M28.27,4.1h-0.49c-0.12,0-0.22-0.1-0.22-0.22V3.66c0-0.04-0.02-0.07-0.06-0.09c-0.04-0.02-0.08-0.01-0.11,0.02
		l-0.16,0.16c-0.09,0.09-0.23,0.09-0.32,0L26.57,3.4c-0.09-0.09-0.09-0.23,0-0.32l0.16-0.16c0.03-0.03,0.04-0.07,0.02-0.11
		c-0.02-0.04-0.05-0.06-0.09-0.06h-0.22c-0.12,0-0.22-0.1-0.22-0.22V2.04c0-0.12,0.1-0.22,0.22-0.22h0.22
		c0.04,0,0.07-0.02,0.09-0.06c0.02-0.04,0.01-0.08-0.02-0.11l-0.16-0.16c-0.09-0.09-0.09-0.23,0-0.32l0.35-0.35
		c0.09-0.09,0.23-0.09,0.32,0l0.16,0.16c0.03,0.03,0.07,0.04,0.11,0.02c0.04-0.02,0.06-0.05,0.06-0.09V0.69
		c0-0.12,0.1-0.22,0.22-0.22h0.49c0.12,0,0.22,0.1,0.22,0.22v0.22c0,0.04,0.02,0.07,0.06,0.09c0.04,0.02,0.08,0.01,0.11-0.02
		l0.16-0.16c0.09-0.09,0.23-0.09,0.32,0l0.35,0.35c0.09,0.09,0.09,0.23,0,0.32l-0.16,0.16c-0.03,0.03-0.04,0.07-0.02,0.11
		c0.02,0.04,0.05,0.06,0.09,0.06h0.22c0.12,0,0.22,0.1,0.22,0.22v0.49c0,0.12-0.1,0.22-0.22,0.22h-0.22c-0.04,0-0.07,0.02-0.09,0.06
		c-0.02,0.04-0.01,0.08,0.02,0.11l0.16,0.16c0.09,0.09,0.09,0.23,0,0.32l-0.35,0.35c-0.09,0.09-0.23,0.09-0.32,0l-0.16-0.16
		c-0.03-0.03-0.07-0.04-0.11-0.02c-0.04,0.02-0.06,0.05-0.06,0.09v0.22C28.49,4,28.39,4.1,28.27,4.1z M27.46,3.43
		c0.03,0,0.06,0.01,0.09,0.02c0.09,0.04,0.14,0.11,0.14,0.21v0.22c0,0.05,0.04,0.1,0.1,0.1h0.49c0.05,0,0.1-0.04,0.1-0.1V3.66
		c0-0.09,0.05-0.17,0.14-0.21c0.09-0.04,0.18-0.02,0.24,0.05l0.16,0.16c0.04,0.04,0.1,0.04,0.14,0l0.35-0.35
		c0.04-0.04,0.04-0.1,0-0.14l-0.16-0.16c-0.07-0.07-0.08-0.16-0.05-0.24c0.04-0.09,0.11-0.14,0.21-0.14h0.22
		c0.05,0,0.1-0.04,0.1-0.1V2.04c0-0.05-0.04-0.1-0.1-0.1h-0.22c-0.09,0-0.17-0.05-0.21-0.14c-0.04-0.09-0.02-0.18,0.05-0.24
		l0.16-0.16c0.04-0.04,0.04-0.1,0-0.14l-0.35-0.35c-0.04-0.04-0.1-0.04-0.14,0l-0.16,0.16c-0.07,0.07-0.16,0.08-0.24,0.05
		c-0.09-0.04-0.14-0.11-0.14-0.21V0.69c0-0.05-0.04-0.1-0.1-0.1h-0.49c-0.05,0-0.1,0.04-0.1,0.1v0.22c0,0.09-0.05,0.17-0.14,0.21
		c-0.09,0.04-0.18,0.02-0.24-0.05l-0.16-0.16c-0.04-0.04-0.1-0.04-0.14,0l-0.35,0.35c-0.04,0.04-0.04,0.1,0,0.14l0.16,0.16
		c0.07,0.07,0.08,0.16,0.05,0.24c-0.04,0.09-0.11,0.14-0.21,0.14h-0.22c-0.05,0-0.1,0.04-0.1,0.1v0.49c0,0.05,0.04,0.1,0.1,0.1h0.22
		c0.09,0,0.17,0.05,0.21,0.14c0.04,0.09,0.02,0.18-0.05,0.24l-0.16,0.16c-0.04,0.04-0.04,0.1,0,0.14L27,3.65
		c0.04,0.04,0.1,0.04,0.14,0L27.3,3.5C27.34,3.45,27.4,3.43,27.46,3.43z M28.02,3.17c-0.49,0-0.89-0.4-0.89-0.89s0.4-0.89,0.89-0.89
		s0.89,0.4,0.89,0.89S28.51,3.17,28.02,3.17z M28.02,1.53c-0.42,0-0.76,0.34-0.76,0.76s0.34,0.76,0.76,0.76s0.76-0.34,0.76-0.76
		S28.44,1.53,28.02,1.53z"/>
</g>
<path class="st0" d="M2.55,15.14C2.55,15.14,2.55,15.14,2.55,15.14C2.55,15.14,2.55,15.14,2.55,15.14z"/>
<path class="st0" d="M2.55,15.14C2.55,15.14,2.55,15.14,2.55,15.14C2.55,15.14,2.55,15.14,2.55,15.14z"/>
<g>
	<path class="st0" d="M13.39,14.01c0.21-0.02,0.37-0.2,0.35-0.41c-0.02-0.21-0.2-0.37-0.41-0.35c-0.21,0.02-0.37,0.2-0.35,0.41
		C12.99,13.87,13.18,14.03,13.39,14.01z"/>
	<path class="st0" d="M13.36,14.08c-0.23,0-0.43-0.18-0.45-0.41c-0.01-0.12,0.03-0.23,0.1-0.33c0.08-0.09,0.19-0.15,0.3-0.16
		c0.12-0.01,0.23,0.03,0.33,0.1c0.09,0.08,0.15,0.19,0.16,0.3c0.02,0.25-0.16,0.46-0.41,0.48l0,0
		C13.38,14.07,13.37,14.08,13.36,14.08z M13.36,13.31c-0.01,0-0.02,0-0.03,0c-0.09,0.01-0.16,0.05-0.22,0.11
		c-0.06,0.07-0.08,0.15-0.08,0.23c0.01,0.18,0.17,0.31,0.35,0.29l0,0c0.18-0.01,0.31-0.17,0.29-0.35c-0.01-0.09-0.05-0.16-0.11-0.22
		C13.5,13.33,13.43,13.31,13.36,13.31z"/>
</g>
<g>
	<path class="st0" d="M11.5,8.09c-0.29-0.04-0.58,0.01-0.84,0.08c-0.13,0.04-0.26,0.09-0.38,0.16c-0.06,0.03-0.12,0.07-0.18,0.1
		c-0.06,0.04-0.1,0.07-0.17,0.11C9.82,8.62,9.71,8.7,9.61,8.8c-0.1,0.09-0.19,0.19-0.27,0.3C9.26,9.2,9.18,9.31,9.11,9.42
		C9.04,9.54,8.98,9.65,8.92,9.77c-0.06,0.12-0.1,0.25-0.14,0.37c-0.03,0.13-0.07,0.26-0.08,0.39c-0.02,0.13-0.02,0.26-0.02,0.39
		l0.01,0.2c0.01,0.07,0.02,0.13,0.03,0.19c0.01,0.06,0.03,0.13,0.05,0.19c0.02,0.06,0.04,0.12,0.07,0.18
		c0.05,0.12,0.13,0.22,0.2,0.33C9,11.9,8.94,11.79,8.9,11.67c-0.02-0.06-0.04-0.12-0.05-0.18c-0.01-0.06-0.03-0.12-0.03-0.18
		c0-0.06-0.01-0.12-0.01-0.19l0.01-0.19c0.01-0.12,0.03-0.25,0.06-0.36c0.02-0.12,0.07-0.24,0.11-0.35c0.05-0.11,0.1-0.22,0.16-0.33
		c0.06-0.11,0.12-0.21,0.2-0.31c0.07-0.1,0.15-0.19,0.23-0.28c0.08-0.09,0.17-0.18,0.26-0.25c0.09-0.08,0.19-0.15,0.29-0.21
		c0.04-0.03,0.11-0.07,0.16-0.09c0.05-0.03,0.1-0.05,0.16-0.07c0.11-0.05,0.22-0.08,0.33-0.12c0.22-0.06,0.46-0.09,0.67-0.05
		c0.11,0.01,0.21,0.05,0.3,0.1c0.09,0.04,0.17,0.11,0.24,0.18L12.4,9.2l-0.04-0.59c-0.05-0.71,0.25-1.43,0.74-1.94
		c0.12-0.13,0.26-0.24,0.41-0.34c0.14-0.1,0.31-0.18,0.46-0.24l0.14-0.05l0.13-0.04c0.09-0.02,0.18-0.05,0.27-0.07
		c0.18-0.04,0.37-0.07,0.56-0.11c0.38-0.07,0.79-0.14,1.17-0.32c0.09-0.04,0.19-0.1,0.27-0.15c0.09-0.06,0.18-0.13,0.25-0.2
		c0.16-0.15,0.28-0.34,0.34-0.56c0.03-0.11,0.04-0.23,0.02-0.34C17.11,4.14,17.07,4.03,17,3.94c-0.12-0.19-0.33-0.33-0.57-0.33
		c-0.06,0-0.11,0.01-0.17,0.03c-0.04,0.01-0.11,0.06-0.15,0.1c-0.08,0.08-0.12,0.19-0.14,0.3c-0.01,0.11,0,0.22,0.05,0.31
		c0.05,0.1,0.15,0.17,0.25,0.18l0.02,0l0.01-0.01c0.08-0.1,0.09-0.24,0.03-0.34c0.04,0.1,0.01,0.22-0.06,0.3
		c-0.17-0.05-0.23-0.26-0.18-0.42c0.04-0.17,0.18-0.29,0.34-0.27c0.16,0.01,0.29,0.13,0.37,0.28c0.04,0.07,0.06,0.15,0.07,0.22
		c0.01,0.08-0.01,0.16-0.03,0.24c-0.05,0.15-0.16,0.29-0.29,0.4c-0.07,0.06-0.14,0.11-0.21,0.15c-0.08,0.04-0.16,0.08-0.24,0.12
		c-0.33,0.13-0.7,0.19-1.09,0.24c-0.19,0.03-0.39,0.05-0.58,0.09c-0.1,0.02-0.2,0.04-0.3,0.06l-0.15,0.04l-0.14,0.05
		c-0.21,0.08-0.39,0.17-0.57,0.29c-0.18,0.11-0.34,0.25-0.49,0.4c-0.49,0.49-0.8,1.16-0.85,1.85C11.78,8.15,11.64,8.1,11.5,8.09z"/>
	<path class="st0" d="M9,12.05l-0.03-0.05c-0.06-0.09-0.12-0.19-0.17-0.29c-0.03-0.06-0.06-0.12-0.08-0.19
		c0-0.01-0.01-0.03-0.01-0.05c-0.02-0.05-0.03-0.1-0.04-0.15c0-0.02-0.01-0.04-0.01-0.06c-0.01-0.04-0.02-0.09-0.02-0.13l-0.01-0.21
		c0-0.13,0-0.26,0.02-0.39c0.01-0.12,0.04-0.24,0.07-0.35l0.01-0.04c0.04-0.14,0.09-0.27,0.14-0.38c0.05-0.11,0.11-0.23,0.19-0.36
		C9.12,9.28,9.2,9.17,9.29,9.06c0.08-0.1,0.17-0.21,0.28-0.3c0.09-0.09,0.2-0.17,0.32-0.26C9.95,8.44,10,8.41,10.06,8.37l0.01,0
		c0.06-0.04,0.12-0.07,0.18-0.1c0.12-0.06,0.24-0.11,0.39-0.16c0.33-0.09,0.6-0.12,0.87-0.09c0.12,0.01,0.24,0.04,0.36,0.09
		c0.08-0.68,0.38-1.32,0.86-1.8c0.16-0.16,0.32-0.3,0.5-0.41c0.19-0.13,0.4-0.22,0.58-0.29l0.14-0.05l0.16-0.04
		c0.11-0.03,0.21-0.05,0.3-0.07c0.18-0.03,0.36-0.06,0.53-0.08L15,5.37c0.36-0.05,0.74-0.11,1.07-0.24
		c0.08-0.03,0.15-0.06,0.24-0.11c0.07-0.04,0.14-0.09,0.2-0.14c0.14-0.12,0.23-0.24,0.27-0.37c0.03-0.08,0.04-0.14,0.03-0.21
		c0-0.06-0.03-0.14-0.06-0.2c-0.06-0.11-0.17-0.23-0.32-0.24c-0.12-0.02-0.24,0.08-0.27,0.22c-0.03,0.12,0,0.27,0.1,0.33
		c0.04-0.06,0.04-0.13,0.02-0.2l0.11-0.05c0.07,0.13,0.06,0.3-0.04,0.41l-0.03,0.03l-0.05,0c-0.13-0.01-0.25-0.09-0.31-0.22
		c-0.05-0.1-0.07-0.22-0.05-0.35c0.02-0.13,0.07-0.25,0.16-0.33c0.04-0.05,0.13-0.1,0.17-0.11c0.07-0.03,0.13-0.03,0.19-0.04
		c0,0,0.01,0,0.01,0c0.24,0,0.47,0.13,0.61,0.36c0.07,0.11,0.11,0.22,0.13,0.35c0.02,0.11,0.01,0.24-0.02,0.37
		c-0.06,0.21-0.18,0.42-0.36,0.59c-0.08,0.08-0.17,0.15-0.26,0.21c-0.08,0.05-0.18,0.11-0.28,0.16c-0.38,0.18-0.78,0.26-1.18,0.33
		L15.03,5.9c-0.18,0.03-0.35,0.06-0.51,0.1c-0.08,0.02-0.17,0.04-0.27,0.07L14.13,6.1l-0.13,0.05c-0.15,0.06-0.31,0.14-0.45,0.23
		c-0.14,0.09-0.27,0.2-0.4,0.33c-0.5,0.51-0.77,1.22-0.72,1.89l0.05,0.76l-0.54-0.54c-0.08-0.08-0.14-0.13-0.22-0.17
		c-0.1-0.05-0.19-0.08-0.28-0.09c-0.18-0.03-0.4-0.02-0.65,0.05c-0.11,0.03-0.22,0.07-0.32,0.11c-0.05,0.02-0.08,0.04-0.12,0.06
		L10.31,8.8c-0.05,0.03-0.13,0.07-0.15,0.09c-0.1,0.07-0.19,0.13-0.28,0.21C9.8,9.16,9.73,9.22,9.66,9.3L9.62,9.34
		C9.53,9.43,9.46,9.52,9.4,9.61C9.32,9.72,9.26,9.82,9.2,9.92c-0.06,0.1-0.1,0.21-0.15,0.32l-0.02,0.05c-0.04,0.1-0.07,0.2-0.09,0.3
		c-0.03,0.11-0.04,0.22-0.06,0.34l0,0.02l-0.01,0.18c0,0.03,0,0.07,0.01,0.11c0,0.02,0,0.05,0.01,0.07c0,0.04,0.01,0.08,0.02,0.12
		c0,0.02,0.01,0.03,0.01,0.05c0.01,0.06,0.02,0.12,0.04,0.17l0,0.01c0.03,0.1,0.07,0.2,0.12,0.29l0.02,0.05L9,12.05z M11.28,8.14
		c-0.18,0-0.38,0.03-0.6,0.1c-0.14,0.04-0.26,0.09-0.37,0.15c-0.06,0.03-0.12,0.06-0.18,0.1l-0.01,0c-0.06,0.04-0.1,0.07-0.16,0.11
		c-0.11,0.08-0.21,0.16-0.3,0.25c-0.1,0.09-0.19,0.2-0.27,0.29C9.3,9.24,9.23,9.35,9.16,9.45C9.09,9.58,9.03,9.69,8.98,9.8
		c-0.05,0.11-0.1,0.23-0.14,0.36L8.83,10.2c-0.03,0.12-0.06,0.23-0.07,0.34c-0.02,0.13-0.02,0.25-0.02,0.38l0,0.01l0.01,0.12
		l0.01-0.14c0.01-0.12,0.03-0.23,0.06-0.35c0.02-0.1,0.06-0.21,0.1-0.31l0.02-0.05c0.05-0.11,0.1-0.22,0.16-0.33
		c0.05-0.1,0.12-0.2,0.2-0.31c0.07-0.1,0.15-0.19,0.24-0.29l0.04-0.05C9.64,9.14,9.72,9.06,9.8,9c0.09-0.08,0.19-0.15,0.29-0.22
		c0.03-0.02,0.11-0.07,0.17-0.1l0.03-0.01c0.04-0.02,0.08-0.04,0.13-0.06c0.11-0.05,0.22-0.08,0.34-0.12
		c0.27-0.07,0.5-0.08,0.7-0.05c0.1,0.01,0.2,0.05,0.32,0.1c0.1,0.05,0.18,0.12,0.26,0.2l0.3,0.3L12.3,8.62
		c-0.05-0.7,0.24-1.45,0.76-1.99c0.13-0.14,0.27-0.26,0.42-0.35c0.15-0.1,0.31-0.18,0.48-0.25l0.14-0.05l0.13-0.04
		c0.1-0.03,0.19-0.05,0.27-0.07c0.17-0.04,0.34-0.07,0.52-0.1l0.05-0.01c0.4-0.07,0.78-0.14,1.15-0.32c0.1-0.04,0.2-0.1,0.27-0.15
		c0.09-0.06,0.17-0.12,0.24-0.19c0.16-0.15,0.27-0.34,0.33-0.53c0.03-0.11,0.04-0.22,0.02-0.31c-0.02-0.11-0.05-0.2-0.11-0.3
		c-0.13-0.19-0.32-0.31-0.51-0.3c-0.05,0-0.1,0.01-0.15,0.03c-0.03,0.01-0.1,0.05-0.12,0.08c-0.05,0.05-0.08,0.11-0.1,0.16
		c0.07-0.15,0.22-0.24,0.38-0.22c0.19,0.01,0.34,0.17,0.42,0.31c0.04,0.07,0.07,0.17,0.08,0.25c0.01,0.08-0.01,0.16-0.04,0.26
		c-0.05,0.15-0.16,0.3-0.31,0.43c-0.07,0.06-0.14,0.11-0.22,0.16c-0.07,0.04-0.16,0.09-0.25,0.12c-0.34,0.14-0.73,0.19-1.1,0.25
		L14.95,5.5c-0.17,0.02-0.35,0.05-0.52,0.08c-0.09,0.02-0.19,0.04-0.3,0.06l-0.15,0.04l-0.13,0.04c-0.17,0.07-0.37,0.15-0.55,0.28
		c-0.17,0.11-0.33,0.24-0.48,0.39c-0.48,0.47-0.78,1.14-0.84,1.81L11.98,8.3l-0.08-0.04c-0.14-0.06-0.27-0.1-0.4-0.12l0,0
		C11.42,8.14,11.35,8.14,11.28,8.14z"/>
</g>
<g>
	<path class="st0" d="M17.5,18.16c-0.07-0.27-0.17-0.67-0.42-1.11c-0.12-0.21-0.29-0.44-0.52-0.64c-0.17-0.19-0.36-0.39-0.59-0.58
		c-0.47-0.38-1.07-0.72-1.77-0.97c-0.7-0.25-1.48-0.42-2.33-0.5c-0.84-0.06-1.7-0.08-2.46-0.44c-0.73-0.34-1.33-1.05-1.58-1.87
		c-0.13-0.41-0.18-0.85-0.13-1.27c0.03-0.21,0.08-0.42,0.16-0.63c0.07-0.19,0.17-0.4,0.28-0.59C8.6,8.8,9.31,8.17,10.01,7.54
		c0.71-0.63,1.43-1.3,1.92-2.13c0.25-0.41,0.43-0.87,0.51-1.34c0.07-0.48,0.03-0.97-0.18-1.41c-0.2-0.43-0.54-0.78-0.96-0.96
		c-0.21-0.09-0.44-0.14-0.65-0.12c-0.25,0.01-0.44,0.08-0.63,0.19C9.66,1.96,9.39,2.31,9.33,2.7c-0.01,0.1-0.01,0.2,0,0.29
		c0.01,0.1,0.04,0.19,0.08,0.28c0.08,0.17,0.2,0.3,0.33,0.4c0.26,0.2,0.59,0.28,0.88,0.21c0.14-0.03,0.27-0.11,0.36-0.2
		c0.1-0.1,0.15-0.22,0.17-0.34c0.04-0.23-0.02-0.44-0.12-0.58c-0.1-0.15-0.27-0.2-0.39-0.17c-0.07,0.01-0.1,0.07-0.11,0.11
		c-0.01,0.04-0.01,0.08,0,0.11c0.01,0.04,0.05,0.03,0.05,0.02c0.01-0.01,0.02-0.02,0.02-0.02s0,0.01-0.02,0.01
		c-0.01,0.01-0.04,0.01-0.04-0.02c-0.01-0.03,0-0.06,0.01-0.1c0.01-0.04,0.05-0.08,0.1-0.08c0.11-0.01,0.24,0.05,0.31,0.18
		c0.07,0.13,0.11,0.32,0.05,0.5c-0.02,0.09-0.08,0.18-0.15,0.24c-0.08,0.07-0.18,0.11-0.29,0.12c-0.21,0.03-0.47-0.05-0.66-0.22
		C9.82,3.36,9.74,3.26,9.7,3.14C9.67,3.08,9.66,3.02,9.66,2.96c0-0.07,0-0.13,0.02-0.2c0.05-0.26,0.26-0.51,0.54-0.64
		c0.13-0.07,0.3-0.1,0.43-0.1c0.17,0,0.31,0.04,0.46,0.11c0.29,0.14,0.54,0.42,0.68,0.74c0.14,0.32,0.16,0.71,0.08,1.09
		C11.8,4.32,11.65,4.67,11.45,5c-0.5,0.6-1.19,1.08-1.87,1.55C9.17,6.83,8.78,7.1,8.44,7.4c-1.64,1.39-2.29,3.02-1.84,4.6
		c0.27,0.95,0.98,1.7,2.07,2.2c0.16,0.1,0.33,0.2,0.5,0.27c0.35,0.14,0.69,0.23,1.04,0.28c-0.81,0.24-1.56,0.57-1.85,0.7
		c-1.48,0.68-2.76,1.18-4.21,1.4c-0.22,0.03-0.47,0.06-0.71,0.06c-0.18-0.03-0.35-0.07-0.52-0.13c-0.16-0.06-0.31-0.1-0.46-0.18
		c-0.13-0.06-0.27-0.15-0.39-0.24c-0.24-0.18-0.44-0.42-0.55-0.67c-0.24-0.52-0.08-1.09,0.33-1.46c0.39-0.37,0.96-0.57,1.39-0.45
		c0.21,0.06,0.38,0.21,0.48,0.39c0.11,0.19,0.14,0.39,0.12,0.59c-0.04,0.39-0.32,0.69-0.6,0.77c-0.28,0.09-0.54-0.02-0.62-0.16
		c-0.09-0.13-0.07-0.23-0.08-0.24c0,0.01-0.03,0.11,0.04,0.26c0.07,0.16,0.34,0.34,0.69,0.28c0.17-0.03,0.35-0.12,0.5-0.27
		c0.15-0.15,0.27-0.36,0.33-0.6c0.06-0.24,0.04-0.53-0.08-0.78c-0.12-0.27-0.35-0.51-0.66-0.62c-0.31-0.11-0.65-0.11-0.97-0.03
		c-0.08,0.02-0.16,0.05-0.24,0.08L2.05,13.5l-0.1,0.05c-0.16,0.09-0.29,0.17-0.43,0.29C1.24,14.06,1,14.37,0.88,14.75
		c-0.11,0.38-0.08,0.81,0.07,1.18c0.15,0.37,0.41,0.7,0.72,0.95c0.16,0.13,0.32,0.23,0.51,0.33c0.17,0.09,0.36,0.15,0.54,0.22
		c0.37,0.12,0.75,0.19,1.13,0.23c0.38,0.03,0.77,0.03,1.15,0c0.76-0.07,1.49-0.26,2.19-0.49c0.7-0.24,1.35-0.53,1.97-0.8
		c0.62-0.27,1.22-0.53,1.8-0.71c0.57-0.19,1.15-0.31,1.68-0.37c0.59-0.07,1.14-0.08,1.61-0.03c0.61,0.2,1.14,0.46,1.57,0.76
		c0,0,0,0,0.01,0.01c-0.07-0.02-0.13-0.03-0.19-0.04c-0.34-0.06-0.69-0.03-1.01,0.03c-0.34,0.05-0.66,0.15-0.98,0.27
		c-0.31,0.13-0.62,0.28-0.9,0.47c-0.28,0.18-0.52,0.37-0.75,0.55c-0.24,0.17-0.45,0.33-0.68,0.45c-0.21,0.11-0.44,0.2-0.65,0.25
		c-0.21,0.05-0.41,0.06-0.59,0.04c-0.17-0.02-0.34-0.07-0.44-0.14c-0.11-0.07-0.17-0.15-0.18-0.22c-0.02-0.07,0-0.11,0-0.11
		c0,0-0.03,0.03-0.04,0.11C9.4,17.76,9.44,17.89,9.55,18c0.11,0.12,0.26,0.21,0.46,0.29c0.2,0.07,0.44,0.12,0.7,0.1
		c0.26-0.01,0.54-0.07,0.82-0.18c0.27-0.1,0.55-0.25,0.8-0.41c0.25-0.16,0.51-0.32,0.77-0.49c0.26-0.15,0.52-0.29,0.79-0.39
		c0.27-0.11,0.56-0.19,0.84-0.25c0.29-0.06,0.57-0.1,0.82-0.08c0.06,0,0.12,0.01,0.18,0.02l0.05,0.01l0.04,0.01l0.09,0.02
		c0.11,0.04,0.22,0.09,0.32,0.15c0.2,0.13,0.37,0.29,0.52,0.46c0.29,0.35,0.48,0.7,0.62,0.94c0.14,0.24,0.22,0.38,0.22,0.38
		S17.56,18.43,17.5,18.16z M6.83,11.93c-0.55-1.9,0.66-3.42,1.76-4.36c0.34-0.29,0.72-0.55,1.13-0.83c0.25-0.17,0.5-0.35,0.74-0.53
		c-0.28,0.28-0.58,0.55-0.89,0.82C9.21,7.35,8.84,7.66,8.49,8.02C8.14,8.37,7.81,8.76,7.54,9.21C7.41,9.44,7.3,9.67,7.21,9.93
		c-0.09,0.24-0.15,0.5-0.18,0.77c-0.06,0.53,0,1.07,0.17,1.56c0.14,0.41,0.35,0.79,0.61,1.13C7.37,13.03,7.01,12.55,6.83,11.93z
		 M12.61,14.93c-0.56,0.03-1.15,0.11-1.78,0.26c-0.62,0.16-1.26,0.38-1.9,0.63c-0.64,0.25-1.29,0.52-1.95,0.72
		c-0.67,0.21-1.36,0.37-2.05,0.43c-0.06,0-0.13,0.01-0.19,0.01c1.25-0.26,2.41-0.72,3.72-1.32c0.26-0.12,1.39-0.62,2.43-0.85
		c0.33,0.02,0.64,0.02,0.94,0.03c0.33,0.01,0.64,0.04,0.95,0.09C12.73,14.93,12.67,14.93,12.61,14.93z"/>
	<path class="st0" d="M17.7,18.92l-0.4-0.72c-0.14-0.24-0.32-0.56-0.59-0.89c-0.16-0.18-0.32-0.33-0.5-0.45
		c-0.09-0.06-0.19-0.11-0.31-0.14l-0.17-0.04c-0.05-0.01-0.11-0.02-0.17-0.02c-0.22-0.02-0.47,0.01-0.8,0.08
		c-0.3,0.06-0.58,0.15-0.83,0.25c-0.26,0.1-0.51,0.23-0.78,0.39l-0.77,0.48c-0.29,0.18-0.57,0.32-0.82,0.42
		c-0.28,0.11-0.56,0.17-0.84,0.18c-0.25,0.01-0.5-0.02-0.73-0.1c-0.21-0.08-0.37-0.18-0.49-0.31c-0.1-0.11-0.16-0.26-0.15-0.37
		c0-0.02,0.01-0.04,0.01-0.06l-0.22-0.05l0.33-0.06l0.01,0.01l0.01,0l0.01,0.02l0.01,0.02l0,0.01l0,0.01l-0.01,0.02
		c0,0.01-0.01,0.04,0,0.07c0.01,0.04,0.05,0.12,0.16,0.18c0.09,0.06,0.24,0.1,0.41,0.13c0.17,0.02,0.36,0.01,0.57-0.04
		c0.2-0.04,0.42-0.13,0.64-0.24c0.22-0.12,0.44-0.28,0.67-0.45c0.06-0.04,0.12-0.09,0.18-0.14c0.18-0.14,0.37-0.28,0.57-0.41
		c0.27-0.18,0.58-0.34,0.91-0.47c0.34-0.13,0.66-0.22,0.99-0.27c0.35-0.06,0.65-0.07,0.92-0.04c-0.38-0.23-0.81-0.43-1.29-0.59
		c-0.47-0.05-1.02-0.04-1.59,0.03c-0.56,0.06-1.14,0.19-1.67,0.36c-0.6,0.19-1.22,0.45-1.8,0.71c-0.1,0.04-0.2,0.09-0.3,0.13
		c-0.53,0.23-1.09,0.47-1.68,0.68C6.42,17.49,5.69,17.65,5,17.72c-0.38,0.04-0.77,0.04-1.16,0c-0.4-0.04-0.78-0.12-1.15-0.24
		c-0.04-0.01-0.07-0.03-0.1-0.04c-0.15-0.05-0.3-0.11-0.44-0.18c-0.19-0.1-0.36-0.2-0.52-0.33c-0.33-0.27-0.59-0.61-0.73-0.97
		c-0.16-0.39-0.19-0.84-0.07-1.22c0.13-0.45,0.43-0.76,0.65-0.94c0.13-0.1,0.25-0.19,0.44-0.29l0.1-0.05l0.13-0.05
		c0.08-0.03,0.16-0.06,0.25-0.08c0.35-0.09,0.7-0.08,1.01,0.03c0.3,0.11,0.56,0.35,0.7,0.66c0.11,0.25,0.14,0.55,0.08,0.83
		C4.13,15.07,4,15.29,3.83,15.46C3.68,15.6,3.49,15.7,3.3,15.74c-0.36,0.07-0.67-0.11-0.76-0.31c-0.07-0.15-0.05-0.25-0.05-0.28
		l0.04,0l0.09-0.02l0,0.01l0,0.02c0,0.03,0,0.1,0.06,0.2c0.08,0.12,0.31,0.21,0.55,0.13c0.24-0.07,0.51-0.34,0.55-0.72
		c0.02-0.2-0.02-0.39-0.11-0.55c-0.11-0.18-0.27-0.31-0.45-0.36c-0.39-0.11-0.94,0.07-1.33,0.44c-0.41,0.37-0.54,0.91-0.32,1.38
		c0.11,0.24,0.29,0.47,0.53,0.65c0.11,0.08,0.25,0.17,0.38,0.23c0.11,0.05,0.22,0.09,0.33,0.13c0.04,0.01,0.08,0.03,0.12,0.04
		c0.16,0.05,0.33,0.09,0.51,0.12c0.23,0,0.47-0.02,0.7-0.06c1.44-0.22,2.72-0.72,4.19-1.4c0.26-0.12,0.89-0.4,1.6-0.63
		c-0.29-0.06-0.55-0.13-0.79-0.24c-0.17-0.08-0.34-0.17-0.51-0.27c-1.1-0.51-1.82-1.28-2.1-2.24c-0.46-1.6,0.2-3.25,1.86-4.66
		C8.75,7.05,9.13,6.78,9.55,6.5c0.67-0.46,1.36-0.94,1.85-1.53c0.21-0.34,0.34-0.68,0.4-1.01c0.08-0.39,0.05-0.76-0.08-1.05
		c-0.13-0.31-0.37-0.58-0.65-0.71c-0.16-0.08-0.29-0.11-0.43-0.11c0,0,0,0,0,0c-0.13,0-0.28,0.04-0.4,0.1
		c-0.26,0.12-0.46,0.36-0.5,0.6C9.72,2.83,9.72,2.89,9.72,2.96c0,0.05,0.02,0.11,0.04,0.16c0.04,0.1,0.11,0.2,0.2,0.29
		c0.18,0.16,0.41,0.23,0.61,0.2c0.09-0.01,0.18-0.05,0.25-0.11c0.05-0.05,0.1-0.12,0.12-0.21c0.04-0.15,0.02-0.33-0.05-0.45
		c-0.07-0.12-0.18-0.16-0.26-0.15l0,0l0,0c0,0,0,0,0,0c-0.02,0-0.03,0.03-0.03,0.04c-0.01,0.03-0.01,0.05-0.01,0.06
		c0,0-0.01-0.01-0.01-0.02c0,0,0,0.01,0,0.01l0,0.01c0-0.01-0.01-0.02-0.02-0.02c0,0-0.01,0-0.01,0l0.1,0.07
		c0,0-0.01,0.01-0.02,0.03c-0.02,0.02-0.05,0.03-0.08,0.03c-0.04-0.01-0.07-0.03-0.08-0.07c-0.01-0.04-0.01-0.09,0-0.15
		c0.02-0.07,0.07-0.15,0.17-0.16c0.13-0.02,0.33,0.03,0.45,0.2c0.12,0.17,0.17,0.4,0.13,0.63c-0.03,0.15-0.09,0.27-0.19,0.37
		c-0.11,0.11-0.24,0.18-0.39,0.22c-0.3,0.07-0.65-0.01-0.93-0.22C9.55,3.6,9.43,3.45,9.36,3.29C9.31,3.19,9.28,3.1,9.27,3
		c-0.01-0.07-0.02-0.19,0-0.3C9.33,2.29,9.6,1.92,9.99,1.7c0.22-0.12,0.42-0.18,0.66-0.19c0.21-0.01,0.46,0.03,0.68,0.13
		c0.43,0.19,0.78,0.54,1,0.99c0.2,0.42,0.26,0.91,0.18,1.45c-0.07,0.45-0.25,0.91-0.52,1.37c-0.49,0.82-1.16,1.46-1.94,2.15
		l-0.01,0.01c-0.69,0.62-1.4,1.25-1.85,2c-0.11,0.17-0.2,0.37-0.28,0.58c-0.08,0.22-0.13,0.42-0.15,0.61
		c-0.05,0.4-0.01,0.83,0.12,1.24c0.25,0.8,0.84,1.51,1.55,1.84c0.66,0.31,1.4,0.36,2.13,0.41c0.1,0.01,0.21,0.01,0.31,0.02
		c0.85,0.08,1.63,0.25,2.35,0.51c0.67,0.24,1.29,0.58,1.78,0.98c0.22,0.18,0.42,0.37,0.6,0.58c0.2,0.17,0.38,0.38,0.53,0.65
		c0.26,0.45,0.36,0.86,0.43,1.13l0,0c0.07,0.28,0.09,0.43,0.09,0.44L17.7,18.92z M9.56,17.92c0.01,0.01,0.02,0.02,0.03,0.04
		c0.1,0.11,0.25,0.2,0.44,0.27c0.21,0.08,0.44,0.11,0.68,0.1c0.27-0.01,0.54-0.07,0.8-0.17c0.24-0.09,0.51-0.23,0.79-0.41l0.77-0.48
		c0.28-0.17,0.54-0.3,0.8-0.4c0.26-0.1,0.55-0.19,0.85-0.26c0.34-0.07,0.61-0.1,0.83-0.08c0.06,0,0.12,0.01,0.18,0.02l0.1,0.02
		l0.09,0.02c0.13,0.04,0.24,0.09,0.34,0.16c0.19,0.12,0.37,0.28,0.53,0.47c0.28,0.33,0.47,0.66,0.61,0.91l0.04,0.08
		c0-0.01-0.01-0.03-0.01-0.04c-0.07-0.26-0.17-0.66-0.42-1.1c-0.15-0.26-0.31-0.46-0.51-0.62l-0.01-0.01
		c-0.17-0.2-0.37-0.4-0.58-0.57c-0.49-0.39-1.09-0.72-1.75-0.96c-0.7-0.25-1.48-0.42-2.31-0.5c-0.1-0.01-0.2-0.01-0.31-0.02
		c-0.74-0.05-1.5-0.1-2.17-0.42c-0.74-0.34-1.36-1.08-1.62-1.91c-0.14-0.43-0.18-0.88-0.13-1.3c0.02-0.21,0.08-0.42,0.16-0.64
		c0.08-0.21,0.18-0.42,0.29-0.6C8.55,8.76,9.26,8.12,9.96,7.5l0.01-0.01c0.76-0.68,1.43-1.31,1.91-2.12
		c0.26-0.44,0.43-0.88,0.5-1.32c0.08-0.5,0.02-0.98-0.17-1.37c-0.2-0.42-0.53-0.75-0.93-0.93c-0.2-0.09-0.43-0.13-0.62-0.12
		c-0.21,0.01-0.4,0.07-0.6,0.18c-0.36,0.2-0.6,0.53-0.66,0.9c-0.02,0.1-0.01,0.2,0,0.27C9.4,3.07,9.43,3.15,9.47,3.24
		c0.07,0.15,0.18,0.27,0.31,0.38c0.25,0.19,0.56,0.26,0.82,0.2c0.12-0.03,0.24-0.09,0.33-0.18c0.08-0.08,0.13-0.18,0.15-0.3
		C11.1,3.26,11.1,3.2,11.1,3.15c0,0.06-0.01,0.12-0.03,0.18c-0.03,0.11-0.09,0.21-0.17,0.27c-0.09,0.08-0.2,0.12-0.32,0.14
		c-0.24,0.04-0.51-0.05-0.71-0.24C9.77,3.4,9.68,3.28,9.64,3.16C9.61,3.1,9.6,3.03,9.59,2.96c0-0.08,0-0.15,0.02-0.22
		c0.06-0.28,0.28-0.54,0.57-0.68C10.32,2,10.5,1.95,10.64,1.95c0,0,0,0,0.01,0c0.16,0,0.31,0.04,0.48,0.12
		c0.3,0.15,0.57,0.44,0.71,0.77c0.14,0.32,0.17,0.72,0.09,1.13c-0.07,0.35-0.21,0.71-0.42,1.06L11.5,5.04
		c-0.51,0.6-1.21,1.09-1.88,1.56c-0.41,0.29-0.8,0.55-1.14,0.84c-1.62,1.37-2.26,2.98-1.82,4.53c0.27,0.92,0.97,1.67,2.04,2.16
		l0.01,0c0.16,0.1,0.32,0.19,0.49,0.27c0.31,0.13,0.64,0.22,1.02,0.27l0.28,0.04l-0.28,0.08c-0.81,0.24-1.56,0.57-1.84,0.7
		c-1.48,0.68-2.77,1.18-4.22,1.41c-0.24,0.04-0.49,0.06-0.72,0.06l-0.01,0l-0.01,0c-0.18-0.03-0.36-0.08-0.53-0.13
		c-0.04-0.02-0.08-0.03-0.12-0.04c-0.12-0.04-0.23-0.08-0.34-0.14c-0.14-0.07-0.28-0.15-0.4-0.24c-0.26-0.19-0.45-0.44-0.57-0.7
		c-0.24-0.52-0.11-1.12,0.35-1.53c0.42-0.4,1.02-0.59,1.45-0.46c0.21,0.06,0.4,0.21,0.52,0.41c0.11,0.19,0.15,0.4,0.13,0.63
		c-0.05,0.45-0.37,0.74-0.64,0.83c-0.04,0.01-0.09,0.02-0.13,0.03c0.04,0,0.09,0,0.13-0.01c0.17-0.03,0.34-0.12,0.47-0.25
		c0.15-0.14,0.26-0.35,0.31-0.57c0.06-0.25,0.03-0.52-0.07-0.74c-0.13-0.27-0.36-0.49-0.63-0.59c-0.28-0.1-0.61-0.11-0.93-0.03
		c-0.08,0.02-0.15,0.04-0.23,0.08l-0.12,0.05l-0.1,0.05c-0.18,0.1-0.3,0.18-0.42,0.28c-0.21,0.17-0.48,0.47-0.61,0.88
		c-0.11,0.36-0.08,0.77,0.07,1.14c0.14,0.35,0.38,0.66,0.7,0.92c0.15,0.13,0.31,0.23,0.5,0.32c0.13,0.07,0.28,0.12,0.43,0.18
		c0.03,0.01,0.07,0.02,0.1,0.04c0.35,0.11,0.73,0.19,1.12,0.23c0.38,0.03,0.76,0.03,1.14,0c0.68-0.07,1.4-0.22,2.18-0.48
		c0.59-0.2,1.14-0.44,1.67-0.67c0.1-0.04,0.2-0.09,0.3-0.13c0.58-0.26,1.21-0.52,1.81-0.71c0.54-0.18,1.12-0.3,1.69-0.37
		c0.58-0.07,1.14-0.08,1.62-0.03l0.01,0c0.6,0.2,1.14,0.46,1.58,0.77l0.28,0.2l-0.33-0.08c-0.06-0.02-0.12-0.03-0.19-0.04
		c-0.29-0.05-0.6-0.04-0.99,0.03c-0.32,0.05-0.64,0.14-0.97,0.27c-0.31,0.13-0.62,0.28-0.88,0.46c-0.2,0.13-0.39,0.27-0.57,0.41
		c-0.06,0.05-0.12,0.09-0.18,0.14c-0.23,0.17-0.45,0.33-0.69,0.46c-0.23,0.12-0.46,0.21-0.67,0.26c-0.22,0.05-0.42,0.06-0.61,0.04
		c-0.19-0.03-0.36-0.08-0.46-0.15C9.59,17.94,9.57,17.93,9.56,17.92z M4.75,17.04l-0.02-0.13c1.34-0.28,2.57-0.8,3.7-1.32
		c0.22-0.1,1.39-0.62,2.45-0.86l0.01,0l0.01,0c0.19,0.01,0.37,0.01,0.55,0.02c0.13,0,0.26,0.01,0.39,0.01
		c0.32,0.01,0.64,0.04,0.96,0.09l-0.01,0.13c-0.06,0-0.11,0-0.17,0.01c-0.62,0.03-1.2,0.12-1.77,0.26
		c-0.55,0.14-1.15,0.34-1.89,0.62l-0.26,0.1C8.14,16.2,7.57,16.42,7,16.6c-0.74,0.24-1.42,0.38-2.06,0.43
		C4.87,17.03,4.81,17.04,4.75,17.04z M10.9,14.87c-1.04,0.23-2.19,0.74-2.41,0.84c-0.86,0.39-1.77,0.79-2.74,1.08
		c0.39-0.07,0.79-0.18,1.22-0.31c0.57-0.17,1.14-0.4,1.69-0.61l0.26-0.1c0.75-0.29,1.35-0.49,1.9-0.63c0.4-0.1,0.81-0.17,1.23-0.22
		c-0.07,0-0.15-0.01-0.22-0.01c-0.13-0.01-0.25-0.01-0.39-0.01C11.27,14.88,11.08,14.88,10.9,14.87z M8.21,13.81l-0.45-0.37
		c-0.5-0.41-0.83-0.91-1-1.49v0c-0.56-1.93,0.66-3.47,1.78-4.42c0.34-0.29,0.72-0.56,1.13-0.84c0.24-0.17,0.5-0.35,0.74-0.52
		l0.08,0.1c-0.29,0.28-0.6,0.56-0.9,0.82l-0.1,0.08c-0.32,0.28-0.65,0.58-0.97,0.9c-0.4,0.4-0.71,0.79-0.94,1.18
		C7.47,9.46,7.36,9.7,7.27,9.95c-0.09,0.26-0.15,0.51-0.18,0.76c-0.06,0.51,0,1.04,0.17,1.53c0.14,0.4,0.34,0.78,0.6,1.11
		L8.21,13.81z M9.69,6.83C9.31,7.1,8.95,7.35,8.63,7.62c-1.09,0.93-2.28,2.43-1.74,4.29v0c0.1,0.36,0.28,0.69,0.52,0.99
		c-0.11-0.2-0.2-0.41-0.28-0.63c-0.17-0.51-0.23-1.06-0.17-1.59c0.03-0.25,0.09-0.52,0.19-0.78c0.09-0.26,0.21-0.5,0.34-0.73
		c0.24-0.4,0.55-0.8,0.96-1.2C8.77,7.65,9.1,7.35,9.42,7.07l0.1-0.08C9.58,6.93,9.63,6.88,9.69,6.83z"/>
</g>
<g>
	<path class="st0" d="M10.06,10.14c-0.05-0.1-0.1-0.2-0.16-0.3C9.92,9.96,9.98,10.06,10.06,10.14z"/>
	<path class="st0" d="M10.28,10.5l-0.27-0.31c-0.09-0.1-0.15-0.21-0.18-0.32L9.75,9.52l0.2,0.29c0.07,0.09,0.12,0.19,0.17,0.31
		L10.28,10.5z"/>
</g>
<g>
	<path class="st0" d="M12.66,12.33c0.12,0.07,0.32,0.23,0.52,0.42c-0.09-0.46-0.51-1-0.81-1.24c-0.67-0.54-1.61-0.67-2.22-1.27
		c-0.03-0.03-0.06-0.06-0.09-0.1c0.28,0.64,0.25,1.41,0.55,2.06c0.22,0.5,0.88,1.11,1.53,1.27c-0.17-0.12-0.3-0.23-0.37-0.3
		c-0.51-0.56-0.78-1.31-1.03-2.03C11.11,11.82,12,11.94,12.66,12.33z"/>
	<path class="st0" d="M12.46,13.62l-0.33-0.08c-0.69-0.17-1.36-0.81-1.58-1.31c-0.15-0.33-0.22-0.7-0.28-1.06
		c-0.06-0.34-0.13-0.69-0.26-1L9.79,9.7l0.32,0.41c0.03,0.04,0.06,0.07,0.09,0.09c0.32,0.31,0.75,0.5,1.16,0.69
		c0.36,0.16,0.74,0.33,1.06,0.58c0.29,0.23,0.73,0.78,0.83,1.28l0.04,0.2l-0.15-0.14c-0.21-0.2-0.41-0.35-0.51-0.41l0,0
		c-0.21-0.12-0.44-0.22-0.67-0.31c-0.37-0.15-0.75-0.31-1.02-0.58c0.21,0.57,0.47,1.17,0.88,1.63c0.06,0.06,0.18,0.17,0.36,0.29
		L12.46,13.62z M10.22,10.39c0.08,0.25,0.13,0.51,0.17,0.76c0.06,0.35,0.13,0.71,0.27,1.03c0.17,0.38,0.62,0.85,1.13,1.1
		c-0.02-0.02-0.05-0.04-0.06-0.06c-0.53-0.58-0.8-1.36-1.04-2.06l0.12-0.05c0.24,0.45,0.71,0.64,1.21,0.85
		c0.23,0.1,0.47,0.19,0.69,0.32c0.09,0.05,0.23,0.16,0.37,0.28c-0.16-0.4-0.5-0.81-0.72-0.99c-0.3-0.24-0.67-0.41-1.03-0.56
		C10.93,10.83,10.54,10.66,10.22,10.39z"/>
</g>
<g>
	<path class="st0" d="M13.98,10.29c0.61-1.05-0.19-2.46,0.06-3.5c-0.17,0.69-0.58,1.31-0.76,2c-0.1,0.39-0.11,1.22,0.05,1.65
		c-0.02-0.18-0.03-0.35-0.01-0.53c0.04-0.28,0.16-0.54,0.28-0.8c0.09,0.37,0.19,0.74,0.19,1.11c0,0.1,0,0.23-0.02,0.36
		C13.83,10.52,13.9,10.42,13.98,10.29z"/>
	<path class="st0" d="M13.45,10.99l-0.19-0.53c-0.16-0.44-0.15-1.28-0.05-1.68c0.09-0.34,0.24-0.67,0.38-0.99
		c0.15-0.32,0.3-0.66,0.38-1.01l0.12,0.03C14,7.24,14.08,7.73,14.16,8.25c0.11,0.71,0.23,1.45-0.13,2.07
		c-0.07,0.12-0.14,0.22-0.21,0.3l-0.14,0.15l0.03-0.2c0.02-0.12,0.03-0.25,0.02-0.35c0-0.31-0.07-0.62-0.15-0.92
		c-0.09,0.2-0.17,0.41-0.2,0.62c-0.02,0.15-0.02,0.3,0.01,0.51L13.45,10.99z M13.62,8.92l0.05,0.21c0.09,0.35,0.18,0.72,0.19,1.09
		c0,0.05,0,0.1,0,0.15c0.02-0.03,0.04-0.07,0.07-0.11l0,0c0.34-0.58,0.22-1.3,0.11-1.99c-0.05-0.32-0.1-0.63-0.11-0.93
		c-0.07,0.17-0.14,0.33-0.21,0.49c-0.14,0.31-0.29,0.64-0.37,0.97c-0.06,0.23-0.09,0.62-0.06,0.98c0.05-0.25,0.16-0.48,0.26-0.7
		L13.62,8.92z"/>
</g>
<g>
	<path class="st0" d="M39.81,15.14C39.81,15.14,39.81,15.14,39.81,15.14C39.81,15.14,39.81,15.14,39.81,15.14z"/>
	<circle class="st0" cx="39.81" cy="15.14" r="0.06"/>
</g>
<g>
	<path class="st0" d="M41.48,14.75c-0.11-0.38-0.36-0.69-0.63-0.91c-0.14-0.11-0.27-0.2-0.43-0.29l-0.1-0.05l-0.12-0.05
		c-0.08-0.03-0.16-0.06-0.24-0.08c-0.32-0.08-0.66-0.08-0.97,0.03c-0.31,0.12-0.54,0.36-0.66,0.62c-0.12,0.26-0.13,0.55-0.08,0.78
		c0.05,0.24,0.17,0.45,0.33,0.6c0.15,0.15,0.33,0.23,0.5,0.27c0.35,0.06,0.62-0.11,0.69-0.28c0.07-0.15,0.04-0.25,0.04-0.26
		c0,0.01,0.01,0.11-0.08,0.24c-0.09,0.14-0.34,0.25-0.62,0.16c-0.28-0.08-0.55-0.38-0.6-0.77c-0.02-0.2,0.01-0.4,0.12-0.59
		c0.1-0.17,0.27-0.33,0.48-0.39c0.43-0.12,1,0.08,1.39,0.45c0.41,0.37,0.57,0.94,0.33,1.46c-0.11,0.26-0.31,0.49-0.55,0.67
		c-0.12,0.09-0.26,0.17-0.39,0.24c-0.15,0.08-0.3,0.12-0.46,0.18c-0.17,0.05-0.35,0.09-0.52,0.13c-0.24,0-0.49-0.03-0.71-0.06
		c-1.45-0.23-2.73-0.72-4.21-1.4c-0.29-0.13-1.04-0.46-1.85-0.7c0.34-0.05,0.69-0.13,1.04-0.28c0.17-0.08,0.34-0.17,0.5-0.27
		c1.09-0.5,1.8-1.25,2.07-2.2c0.45-1.57-0.2-3.21-1.84-4.6c-0.34-0.29-0.73-0.56-1.14-0.85C32.1,6.08,31.41,5.6,30.91,5
		c-0.2-0.33-0.35-0.68-0.41-1.04c-0.07-0.38-0.05-0.77,0.08-1.09c0.14-0.33,0.39-0.6,0.68-0.74c0.15-0.07,0.29-0.12,0.46-0.11
		c0.13,0,0.3,0.04,0.43,0.1c0.28,0.13,0.49,0.38,0.54,0.64c0.02,0.07,0.02,0.13,0.02,0.2c0,0.06-0.02,0.12-0.04,0.18
		c-0.05,0.12-0.13,0.23-0.22,0.31c-0.19,0.17-0.45,0.25-0.66,0.22c-0.11-0.01-0.21-0.06-0.29-0.12c-0.07-0.06-0.12-0.15-0.15-0.24
		c-0.05-0.18-0.02-0.37,0.05-0.5c0.07-0.13,0.21-0.19,0.31-0.18c0.05,0,0.08,0.04,0.1,0.08c0.01,0.04,0.02,0.07,0.01,0.1
		c0,0.03-0.03,0.03-0.04,0.02c-0.01-0.01-0.02-0.01-0.02-0.01s0,0.01,0.02,0.02c0.01,0.01,0.05,0.02,0.05-0.02
		c0.01-0.03,0.01-0.07,0-0.11c-0.01-0.04-0.04-0.1-0.11-0.11c-0.12-0.02-0.29,0.03-0.39,0.17c-0.11,0.14-0.16,0.35-0.12,0.58
		c0.02,0.11,0.07,0.23,0.17,0.34c0.09,0.09,0.22,0.17,0.36,0.2c0.29,0.07,0.61-0.01,0.87-0.21c0.13-0.1,0.25-0.23,0.33-0.4
		c0.04-0.08,0.07-0.17,0.08-0.28c0.01-0.09,0.01-0.19,0-0.29c-0.06-0.39-0.33-0.74-0.69-0.94c-0.19-0.1-0.38-0.17-0.63-0.19
		c-0.21-0.01-0.45,0.03-0.65,0.12c-0.42,0.18-0.76,0.53-0.96,0.96c-0.21,0.44-0.25,0.93-0.18,1.41c0.08,0.47,0.26,0.93,0.51,1.34
		c0.5,0.84,1.22,1.5,1.92,2.13c0.7,0.63,1.41,1.27,1.88,2.03c0.11,0.19,0.21,0.39,0.28,0.59c0.08,0.21,0.13,0.42,0.16,0.63
		c0.05,0.42,0,0.86-0.13,1.27c-0.25,0.82-0.85,1.54-1.58,1.87c-0.76,0.36-1.62,0.37-2.46,0.44c-0.84,0.08-1.63,0.25-2.33,0.5
		c-0.7,0.25-1.3,0.59-1.77,0.97c-0.23,0.19-0.43,0.38-0.59,0.58c-0.23,0.19-0.4,0.42-0.52,0.64c-0.25,0.44-0.35,0.84-0.42,1.11
		c-0.07,0.28-0.09,0.43-0.09,0.43s0.08-0.14,0.22-0.38c0.14-0.24,0.33-0.59,0.62-0.94c0.15-0.17,0.32-0.33,0.52-0.46
		c0.1-0.06,0.21-0.11,0.32-0.15l0.09-0.02l0.04-0.01l0.05-0.01c0.05-0.01,0.11-0.02,0.18-0.02c0.25-0.02,0.52,0.02,0.82,0.08
		c0.28,0.06,0.57,0.14,0.84,0.25c0.28,0.11,0.54,0.24,0.79,0.39c0.26,0.17,0.52,0.33,0.77,0.49c0.26,0.16,0.53,0.31,0.8,0.41
		c0.28,0.11,0.56,0.17,0.82,0.18c0.26,0.01,0.5-0.03,0.7-0.1c0.2-0.08,0.35-0.17,0.46-0.29c0.1-0.11,0.14-0.24,0.13-0.32
		c-0.01-0.08-0.04-0.11-0.04-0.11c0,0,0.02,0.04,0,0.11c-0.01,0.07-0.08,0.15-0.18,0.22c-0.1,0.06-0.26,0.11-0.44,0.14
		c-0.18,0.02-0.38,0.01-0.59-0.04c-0.21-0.05-0.44-0.14-0.65-0.25c-0.23-0.12-0.44-0.28-0.68-0.45c-0.23-0.17-0.48-0.36-0.75-0.55
		c-0.27-0.18-0.58-0.34-0.9-0.47c-0.32-0.12-0.64-0.22-0.98-0.27c-0.32-0.05-0.67-0.08-1.01-0.03c-0.06,0.01-0.13,0.02-0.19,0.04
		c0,0,0,0,0.01-0.01c0.43-0.3,0.96-0.56,1.57-0.76c0.47-0.05,1.01-0.04,1.61,0.03c0.53,0.06,1.11,0.18,1.68,0.37
		c0.58,0.18,1.18,0.44,1.8,0.71c0.62,0.27,1.27,0.56,1.97,0.8c0.7,0.23,1.43,0.41,2.19,0.49c0.38,0.04,0.77,0.04,1.15,0
		c0.38-0.04,0.76-0.12,1.13-0.23c0.18-0.07,0.37-0.13,0.54-0.22c0.19-0.09,0.35-0.2,0.51-0.33c0.31-0.25,0.57-0.57,0.72-0.95
		C41.56,15.56,41.59,15.14,41.48,14.75z M35.33,10.7c-0.03-0.27-0.1-0.53-0.18-0.77c-0.09-0.26-0.2-0.49-0.34-0.72
		c-0.26-0.45-0.6-0.84-0.95-1.19c-0.35-0.35-0.72-0.67-1.07-0.99c-0.31-0.27-0.61-0.54-0.89-0.82c0.24,0.18,0.49,0.35,0.74,0.53
		c0.41,0.28,0.79,0.55,1.13,0.83c1.11,0.94,2.31,2.46,1.76,4.36c-0.18,0.62-0.55,1.1-0.98,1.45c0.26-0.34,0.47-0.72,0.61-1.13
		C35.33,11.76,35.39,11.23,35.33,10.7z M35.38,16.54c-0.66-0.2-1.31-0.47-1.95-0.72c-0.64-0.25-1.28-0.47-1.9-0.63
		c-0.63-0.16-1.22-0.23-1.78-0.26c-0.06,0-0.12,0-0.17-0.01c0.31-0.04,0.63-0.07,0.95-0.09c0.3-0.01,0.61-0.01,0.94-0.03
		c1.04,0.23,2.17,0.73,2.43,0.85c1.31,0.6,2.46,1.06,3.72,1.32c-0.06,0-0.13-0.01-0.19-0.01C36.73,16.91,36.04,16.75,35.38,16.54z"
		/>
	<path class="st0" d="M24.66,18.92l0.05-0.33c0-0.01,0.02-0.17,0.09-0.44c0.07-0.27,0.17-0.68,0.43-1.13
		c0.16-0.27,0.33-0.48,0.53-0.65c0.18-0.21,0.38-0.4,0.6-0.58c0.5-0.4,1.11-0.74,1.78-0.98c0.71-0.26,1.5-0.43,2.34-0.51
		c0.1-0.01,0.21-0.01,0.31-0.02c0.72-0.05,1.47-0.1,2.13-0.41c0.71-0.33,1.3-1.03,1.55-1.84c0.13-0.41,0.18-0.84,0.12-1.24
		c-0.02-0.2-0.07-0.4-0.15-0.62c-0.08-0.2-0.17-0.4-0.28-0.58c-0.45-0.75-1.16-1.39-1.85-2L32.3,7.58
		c-0.77-0.69-1.45-1.33-1.94-2.15c-0.27-0.45-0.45-0.91-0.52-1.37c-0.08-0.53-0.02-1.03,0.18-1.45c0.22-0.45,0.57-0.8,1-0.99
		c0.22-0.09,0.47-0.14,0.68-0.13c0.23,0.01,0.44,0.07,0.66,0.19c0.39,0.22,0.66,0.59,0.72,0.99c0.02,0.12,0.01,0.23,0,0.3
		c-0.01,0.1-0.04,0.2-0.09,0.3c-0.08,0.16-0.2,0.31-0.35,0.42c-0.28,0.21-0.63,0.29-0.93,0.22c-0.15-0.03-0.28-0.11-0.39-0.22
		c-0.1-0.1-0.16-0.22-0.19-0.37c-0.04-0.23,0.01-0.46,0.13-0.63c0.12-0.17,0.32-0.22,0.45-0.2c0.09,0.01,0.15,0.09,0.17,0.16
		c0.01,0.05,0.01,0.1,0,0.14c-0.01,0.04-0.04,0.07-0.08,0.07c-0.03,0-0.06-0.01-0.08-0.03c-0.01-0.01-0.02-0.02-0.02-0.03l0.1-0.07
		c0,0-0.01,0-0.01,0c-0.01,0-0.02,0.01-0.02,0.02l0-0.01c0,0,0-0.01,0-0.01c-0.01,0.01-0.01,0.01-0.02,0.02c0-0.02,0-0.04-0.01-0.07
		c0,0-0.01-0.04-0.03-0.04c0,0,0,0,0,0l0,0l0,0c-0.08-0.01-0.19,0.03-0.26,0.15c-0.07,0.13-0.09,0.3-0.05,0.45
		c0.02,0.08,0.07,0.16,0.13,0.21c0.07,0.06,0.16,0.1,0.25,0.11c0.2,0.03,0.43-0.05,0.61-0.2c0.09-0.08,0.16-0.18,0.2-0.29
		c0.02-0.05,0.03-0.11,0.04-0.16c0-0.07,0-0.12-0.02-0.18c-0.05-0.24-0.25-0.48-0.5-0.6c-0.12-0.06-0.28-0.1-0.4-0.1c0,0,0,0-0.01,0
		c-0.14,0-0.27,0.03-0.43,0.11c-0.27,0.13-0.52,0.4-0.65,0.71c-0.13,0.29-0.16,0.67-0.08,1.05c0.06,0.33,0.2,0.67,0.4,1.01
		c0.5,0.59,1.19,1.07,1.85,1.53c0.41,0.29,0.8,0.56,1.15,0.85c1.66,1.41,2.32,3.07,1.86,4.66c-0.28,0.96-1,1.73-2.1,2.24
		c-0.16,0.11-0.33,0.2-0.5,0.27c-0.25,0.1-0.51,0.18-0.79,0.24c0.72,0.23,1.35,0.51,1.6,0.63c1.47,0.68,2.75,1.17,4.19,1.4
		c0.23,0.04,0.47,0.06,0.7,0.06c0.18-0.03,0.35-0.07,0.51-0.12c0.04-0.01,0.08-0.03,0.12-0.04c0.11-0.04,0.22-0.08,0.33-0.13
		c0.13-0.07,0.27-0.15,0.38-0.23c0.24-0.18,0.42-0.4,0.53-0.65c0.22-0.47,0.09-1.02-0.32-1.38c-0.39-0.37-0.94-0.55-1.33-0.44
		c-0.18,0.05-0.34,0.18-0.45,0.36c-0.09,0.16-0.13,0.35-0.11,0.55c0.04,0.38,0.31,0.65,0.55,0.72c0.24,0.08,0.48-0.01,0.55-0.13
		c0.06-0.1,0.07-0.17,0.07-0.2c0-0.01,0-0.02,0-0.02l0.07,0.02l0.05,0c0.01,0.04,0.02,0.14-0.05,0.29c-0.09,0.21-0.4,0.38-0.76,0.31
		c-0.19-0.04-0.38-0.14-0.54-0.28c-0.17-0.16-0.29-0.39-0.35-0.63c-0.06-0.27-0.03-0.57,0.08-0.82c0.14-0.3,0.4-0.54,0.7-0.66
		c0.31-0.11,0.65-0.13,1.01-0.03c0.09,0.02,0.17,0.05,0.25,0.08l0.12,0.05l0.1,0.05c0.19,0.11,0.32,0.19,0.44,0.3
		c0.22,0.18,0.52,0.5,0.65,0.94l0,0c0.12,0.38,0.09,0.83-0.07,1.22c-0.15,0.37-0.4,0.7-0.73,0.97c-0.16,0.13-0.33,0.24-0.52,0.33
		c-0.14,0.07-0.29,0.13-0.44,0.18c-0.03,0.01-0.07,0.02-0.1,0.04c-0.37,0.12-0.75,0.2-1.15,0.24c-0.39,0.03-0.78,0.03-1.16,0
		c-0.69-0.07-1.41-0.23-2.21-0.49c-0.59-0.2-1.15-0.44-1.68-0.68c-0.1-0.04-0.2-0.09-0.3-0.13c-0.58-0.26-1.2-0.52-1.8-0.71
		c-0.53-0.17-1.11-0.3-1.67-0.37c-0.57-0.07-1.12-0.08-1.59-0.03c-0.48,0.16-0.91,0.35-1.29,0.59c0.27-0.03,0.57-0.02,0.92,0.04
		c0.33,0.05,0.66,0.14,0.99,0.27c0.32,0.13,0.64,0.29,0.91,0.47c0.21,0.14,0.39,0.28,0.57,0.41c0.06,0.05,0.12,0.09,0.18,0.14
		c0.23,0.17,0.45,0.33,0.67,0.45c0.22,0.12,0.44,0.2,0.64,0.24c0.2,0.04,0.39,0.06,0.57,0.04c0.17-0.02,0.32-0.07,0.41-0.13
		c0.1-0.07,0.15-0.14,0.15-0.18c0.01-0.03,0-0.06,0-0.07l-0.01-0.01l0-0.01l0-0.01l0.01-0.02l0.01-0.02l0.01,0l0.01-0.01l0.33,0.06
		l-0.22,0.05c0.01,0.02,0.01,0.04,0.01,0.06c0.01,0.11-0.04,0.26-0.15,0.37c-0.12,0.13-0.28,0.23-0.49,0.31
		c-0.23,0.08-0.48,0.12-0.73,0.11c-0.28-0.01-0.56-0.07-0.84-0.18c-0.25-0.1-0.52-0.24-0.81-0.42l-0.77-0.49
		c-0.27-0.16-0.52-0.29-0.78-0.39c-0.26-0.1-0.53-0.19-0.83-0.25c-0.33-0.07-0.58-0.09-0.8-0.08c-0.05,0-0.11,0.01-0.17,0.02
		l-0.09,0.02l-0.09,0.02c-0.11,0.04-0.21,0.08-0.3,0.14c-0.18,0.11-0.35,0.26-0.5,0.45c-0.27,0.32-0.46,0.65-0.59,0.89l-0.02,0.04
		L24.66,18.92z M26.93,16.53c0.2,0,0.42,0.03,0.7,0.08c0.31,0.07,0.59,0.15,0.85,0.26c0.26,0.1,0.53,0.23,0.8,0.4l0.77,0.49
		c0.28,0.18,0.55,0.31,0.79,0.41c0.26,0.1,0.53,0.16,0.8,0.17c0.24,0.01,0.47-0.02,0.68-0.1c0.19-0.07,0.33-0.16,0.44-0.27
		c0.01-0.01,0.02-0.02,0.03-0.04c-0.01,0.01-0.03,0.02-0.04,0.03c-0.1,0.07-0.27,0.12-0.46,0.15c-0.19,0.02-0.4,0.01-0.61-0.04
		c-0.21-0.05-0.44-0.14-0.67-0.26c-0.23-0.12-0.45-0.29-0.69-0.46c-0.06-0.04-0.12-0.09-0.18-0.14c-0.18-0.13-0.36-0.27-0.57-0.41
		c-0.26-0.18-0.57-0.34-0.88-0.46c-0.33-0.13-0.64-0.21-0.97-0.27c-0.39-0.06-0.7-0.07-0.99-0.03c-0.06,0.01-0.13,0.02-0.19,0.04
		l-0.33,0.09l0.29-0.2c0.44-0.31,0.98-0.57,1.58-0.77l0.01,0c0.48-0.05,1.04-0.04,1.62,0.03c0.57,0.07,1.15,0.19,1.69,0.37
		c0.6,0.19,1.22,0.45,1.81,0.71c0.1,0.04,0.2,0.09,0.3,0.13c0.53,0.23,1.08,0.47,1.67,0.67c0.78,0.26,1.49,0.42,2.18,0.48
		c0.38,0.03,0.76,0.04,1.14,0c0.38-0.04,0.76-0.12,1.12-0.23c0.03-0.01,0.07-0.02,0.1-0.04c0.14-0.05,0.29-0.11,0.43-0.18
		c0.18-0.09,0.34-0.19,0.5-0.32c0.32-0.26,0.56-0.58,0.7-0.92c0.15-0.37,0.18-0.78,0.07-1.14l0,0c-0.12-0.42-0.4-0.71-0.61-0.88
		c-0.12-0.1-0.24-0.18-0.42-0.28l-0.1-0.05l-0.12-0.05c-0.09-0.03-0.16-0.06-0.23-0.07c-0.32-0.08-0.66-0.07-0.93,0.03
		c-0.27,0.1-0.5,0.32-0.63,0.59c-0.1,0.23-0.13,0.5-0.07,0.74c0.05,0.22,0.16,0.42,0.31,0.57c0.14,0.13,0.3,0.22,0.47,0.25
		c0.05,0.01,0.09,0.01,0.13,0.01c-0.04-0.01-0.08-0.01-0.13-0.03c-0.27-0.08-0.59-0.38-0.64-0.83c-0.03-0.23,0.02-0.44,0.13-0.63
		c0.12-0.21,0.31-0.36,0.52-0.41c0.43-0.13,1.03,0.07,1.45,0.47c0.45,0.4,0.59,1,0.35,1.53c-0.12,0.26-0.31,0.5-0.57,0.7
		c-0.12,0.09-0.26,0.18-0.4,0.24c-0.11,0.06-0.23,0.1-0.34,0.14c-0.04,0.01-0.08,0.03-0.12,0.04c-0.17,0.05-0.35,0.1-0.53,0.13
		l-0.01,0l-0.01,0c-0.24,0-0.48-0.02-0.72-0.06c-1.45-0.23-2.74-0.73-4.22-1.41c-0.28-0.13-1.03-0.46-1.84-0.7l-0.28-0.08l0.28-0.04
		c0.38-0.06,0.71-0.14,1.02-0.27c0.17-0.07,0.33-0.16,0.49-0.27l0.01,0c1.07-0.49,1.77-1.24,2.04-2.16c0.45-1.55-0.2-3.16-1.82-4.53
		c-0.34-0.29-0.73-0.56-1.14-0.84c-0.68-0.47-1.37-0.96-1.88-1.56l-0.01-0.01c-0.21-0.35-0.36-0.71-0.42-1.06
		c-0.08-0.41-0.05-0.81,0.09-1.13c0.14-0.34,0.41-0.63,0.71-0.77c0.18-0.08,0.33-0.12,0.49-0.12c0,0,0,0,0,0
		c0.14,0,0.32,0.04,0.46,0.11c0.3,0.14,0.52,0.4,0.57,0.68c0.02,0.07,0.02,0.13,0.02,0.21c0,0.07-0.02,0.14-0.04,0.2
		c-0.05,0.12-0.13,0.24-0.24,0.34c-0.2,0.18-0.48,0.27-0.71,0.23c-0.11-0.02-0.22-0.06-0.32-0.14c-0.08-0.06-0.14-0.16-0.17-0.27
		c-0.02-0.06-0.02-0.12-0.03-0.17c0,0.06,0,0.12,0.01,0.18c0.02,0.12,0.07,0.22,0.15,0.3c0.09,0.09,0.21,0.15,0.33,0.18
		c0.26,0.06,0.57-0.01,0.82-0.2c0.14-0.1,0.24-0.23,0.31-0.38c0.04-0.08,0.07-0.17,0.08-0.26c0.01-0.06,0.01-0.16,0-0.27
		c-0.05-0.36-0.3-0.7-0.66-0.9c-0.2-0.11-0.39-0.17-0.6-0.18c-0.19-0.01-0.42,0.03-0.62,0.12c-0.4,0.17-0.73,0.5-0.93,0.93
		c-0.19,0.39-0.25,0.87-0.17,1.37c0.07,0.44,0.24,0.88,0.5,1.32c0.48,0.8,1.15,1.43,1.91,2.12L32.4,7.5
		c0.69,0.62,1.41,1.27,1.88,2.03c0.11,0.18,0.21,0.39,0.29,0.6c0.08,0.23,0.14,0.44,0.16,0.64c0.05,0.42,0.01,0.87-0.13,1.3
		c-0.26,0.83-0.87,1.57-1.62,1.91c-0.68,0.32-1.44,0.37-2.17,0.42c-0.1,0.01-0.21,0.01-0.31,0.02c-0.83,0.08-1.61,0.25-2.31,0.5
		c-0.66,0.24-1.26,0.57-1.75,0.96c-0.21,0.17-0.41,0.36-0.58,0.57l-0.01,0.01c-0.19,0.16-0.36,0.36-0.51,0.62
		c-0.25,0.44-0.35,0.83-0.42,1.1c0,0.01-0.01,0.03-0.01,0.04l0.04-0.08c0.14-0.24,0.33-0.57,0.61-0.91
		c0.16-0.19,0.34-0.35,0.53-0.47c0.1-0.06,0.21-0.12,0.33-0.16l0.18-0.05c0.06-0.01,0.13-0.02,0.19-0.02
		C26.84,16.53,26.89,16.53,26.93,16.53z M37.61,17.04c-0.06,0-0.13-0.01-0.19-0.01c-0.64-0.05-1.32-0.2-2.06-0.43
		c-0.57-0.17-1.14-0.4-1.69-0.62l-0.26-0.1c-0.74-0.29-1.34-0.49-1.89-0.62c-0.57-0.14-1.15-0.23-1.77-0.26
		c-0.06,0-0.11,0-0.17-0.01l-0.01-0.13c0.32-0.04,0.64-0.07,0.96-0.09c0.13-0.01,0.26-0.01,0.39-0.01c0.18,0,0.36-0.01,0.55-0.02
		l0.01,0l0.01,0c1.06,0.23,2.22,0.75,2.45,0.86c1.13,0.52,2.36,1.04,3.7,1.32L37.61,17.04z M30.31,14.91
		c0.42,0.05,0.83,0.12,1.23,0.22c0.55,0.14,1.16,0.34,1.9,0.63l0.26,0.1c0.55,0.22,1.11,0.44,1.68,0.61l0,0
		c0.43,0.14,0.83,0.24,1.22,0.32c-0.97-0.29-1.89-0.68-2.74-1.08c-0.22-0.1-1.37-0.62-2.41-0.84c-0.19,0.01-0.37,0.01-0.55,0.02
		c-0.13,0-0.26,0.01-0.39,0.01C30.46,14.9,30.38,14.91,30.31,14.91z M34.15,13.81l0.36-0.46c0.26-0.34,0.46-0.71,0.6-1.11
		c0.17-0.49,0.23-1.02,0.17-1.53l0,0c-0.03-0.24-0.09-0.5-0.18-0.76C35,9.7,34.89,9.46,34.76,9.24c-0.23-0.39-0.54-0.78-0.94-1.18
		c-0.32-0.32-0.65-0.62-0.97-0.9l-0.1-0.08c-0.3-0.27-0.61-0.54-0.9-0.82l0.08-0.1c0.24,0.18,0.49,0.35,0.73,0.52
		c0.41,0.29,0.8,0.55,1.13,0.84c1.12,0.95,2.34,2.49,1.78,4.42c-0.17,0.57-0.5,1.07-1,1.49L34.15,13.81z M35.4,10.69
		c0.06,0.53,0,1.07-0.17,1.58c-0.07,0.22-0.17,0.43-0.28,0.63c0.24-0.3,0.42-0.63,0.52-0.99c0.54-1.87-0.65-3.36-1.74-4.29
		c-0.32-0.27-0.68-0.52-1.06-0.79c0.06,0.05,0.11,0.1,0.17,0.15l0.1,0.08c0.32,0.29,0.66,0.58,0.98,0.91
		c0.41,0.41,0.72,0.8,0.96,1.2c0.14,0.23,0.25,0.47,0.34,0.73C35.31,10.17,35.37,10.44,35.4,10.69z"/>
</g>
<g>
	<path class="st0" d="M28.97,14.01c0.21,0.02,0.4-0.14,0.41-0.35c0.02-0.21-0.14-0.4-0.35-0.41c-0.21-0.02-0.4,0.14-0.41,0.35
		C28.6,13.81,28.76,13.99,28.97,14.01z"/>
	<path class="st0" d="M29,14.08c-0.01,0-0.02,0-0.04,0l0,0c-0.25-0.02-0.43-0.24-0.41-0.48c0.01-0.12,0.07-0.23,0.16-0.3
		c0.09-0.08,0.21-0.11,0.33-0.1c0.12,0.01,0.23,0.07,0.3,0.16c0.08,0.09,0.11,0.21,0.1,0.33c-0.01,0.12-0.07,0.23-0.16,0.3
		C29.21,14.04,29.11,14.08,29,14.08z M28.98,13.95c0.09,0.01,0.17-0.02,0.23-0.08c0.07-0.06,0.11-0.13,0.11-0.22
		c0.01-0.18-0.12-0.33-0.29-0.35c-0.09-0.01-0.17,0.02-0.23,0.08c-0.07,0.06-0.11,0.13-0.11,0.22
		C28.67,13.78,28.8,13.93,28.98,13.95L28.98,13.95z"/>
</g>
<g>
	<path class="st0" d="M25.6,5.16c0.08,0.07,0.16,0.14,0.25,0.2c0.09,0.05,0.18,0.11,0.27,0.15c0.38,0.18,0.78,0.26,1.17,0.32
		c0.19,0.03,0.38,0.07,0.56,0.11c0.09,0.02,0.18,0.04,0.27,0.07l0.13,0.04l0.14,0.05c0.15,0.06,0.32,0.14,0.46,0.24
		c0.15,0.1,0.28,0.21,0.41,0.34c0.5,0.51,0.79,1.23,0.74,1.94L29.96,9.2l0.42-0.42c0.07-0.07,0.15-0.14,0.24-0.18
		c0.09-0.05,0.19-0.08,0.3-0.1c0.21-0.04,0.45-0.01,0.67,0.05c0.11,0.03,0.22,0.07,0.33,0.12c0.06,0.02,0.1,0.05,0.16,0.07
		c0.05,0.02,0.12,0.07,0.16,0.09c0.1,0.07,0.2,0.13,0.29,0.21c0.09,0.07,0.18,0.16,0.26,0.25c0.08,0.09,0.16,0.18,0.23,0.28
		c0.07,0.1,0.14,0.2,0.2,0.31c0.06,0.11,0.11,0.22,0.16,0.33c0.04,0.11,0.09,0.23,0.11,0.35c0.03,0.12,0.05,0.24,0.06,0.36
		l0.01,0.19c0,0.06-0.01,0.12-0.01,0.19c0,0.06-0.02,0.12-0.03,0.18c-0.01,0.06-0.02,0.12-0.05,0.18c-0.03,0.12-0.09,0.24-0.15,0.35
		c0.07-0.11,0.15-0.21,0.2-0.33c0.03-0.06,0.06-0.12,0.07-0.18c0.02-0.06,0.04-0.12,0.05-0.19c0.01-0.06,0.03-0.13,0.03-0.19
		l0.01-0.2c0-0.13,0-0.26-0.02-0.39c-0.01-0.13-0.05-0.26-0.08-0.39c-0.04-0.13-0.08-0.25-0.14-0.37c-0.05-0.12-0.12-0.24-0.19-0.35
		c-0.07-0.11-0.15-0.22-0.23-0.33c-0.08-0.1-0.17-0.2-0.27-0.3c-0.1-0.09-0.2-0.18-0.31-0.26c-0.06-0.04-0.11-0.07-0.17-0.11
		c-0.06-0.04-0.12-0.07-0.18-0.1c-0.12-0.06-0.25-0.11-0.38-0.16c-0.26-0.08-0.55-0.12-0.84-0.08c-0.14,0.02-0.29,0.06-0.42,0.12
		c-0.06-0.69-0.36-1.36-0.85-1.85c-0.15-0.15-0.31-0.29-0.49-0.4c-0.18-0.12-0.36-0.21-0.57-0.29l-0.14-0.05l-0.15-0.04
		c-0.1-0.02-0.2-0.05-0.3-0.06c-0.2-0.04-0.39-0.06-0.58-0.09c-0.38-0.06-0.75-0.11-1.09-0.24c-0.08-0.03-0.16-0.07-0.24-0.12
		c-0.07-0.04-0.15-0.09-0.21-0.15c-0.13-0.11-0.24-0.25-0.29-0.4c-0.03-0.08-0.04-0.15-0.03-0.24c0-0.07,0.03-0.15,0.07-0.22
		c0.08-0.14,0.21-0.26,0.37-0.28c0.16-0.02,0.3,0.1,0.34,0.27c0.04,0.16-0.01,0.37-0.18,0.42c-0.07-0.07-0.1-0.19-0.06-0.3
		c-0.06,0.1-0.05,0.24,0.03,0.34l0.01,0.01l0.02,0c0.11-0.01,0.21-0.08,0.25-0.18c0.05-0.1,0.06-0.21,0.05-0.31
		c-0.02-0.11-0.06-0.21-0.14-0.3c-0.03-0.04-0.11-0.09-0.15-0.1c-0.06-0.02-0.11-0.03-0.17-0.03c-0.24,0-0.45,0.15-0.57,0.33
		c-0.06,0.1-0.11,0.2-0.12,0.32c-0.02,0.11-0.01,0.23,0.02,0.34C25.31,4.82,25.44,5.01,25.6,5.16z"/>
	<path class="st0" d="M33.36,12.05l-0.11-0.06l0.02-0.05c0.05-0.09,0.09-0.19,0.12-0.29l0-0.01c0.02-0.06,0.03-0.11,0.04-0.17
		c0-0.02,0.01-0.04,0.01-0.05c0.01-0.04,0.02-0.08,0.02-0.12c0-0.03,0-0.05,0.01-0.07c0-0.04,0.01-0.08,0.01-0.11l-0.01-0.2
		c-0.01-0.12-0.03-0.22-0.06-0.33c-0.02-0.1-0.06-0.2-0.09-0.3l-0.02-0.05c-0.05-0.11-0.09-0.22-0.15-0.32
		c-0.05-0.1-0.11-0.2-0.19-0.3c-0.07-0.09-0.14-0.18-0.23-0.28L32.69,9.3c-0.07-0.07-0.14-0.14-0.21-0.2
		c-0.09-0.08-0.19-0.15-0.28-0.21c-0.03-0.02-0.1-0.06-0.15-0.09l-0.03-0.01c-0.04-0.02-0.08-0.04-0.12-0.06
		c-0.11-0.05-0.21-0.08-0.33-0.11c-0.24-0.06-0.46-0.08-0.64-0.05c-0.09,0.01-0.18,0.04-0.28,0.09c-0.08,0.04-0.15,0.1-0.22,0.17
		l-0.54,0.54l0.05-0.76c0.04-0.67-0.23-1.38-0.72-1.89c-0.13-0.13-0.26-0.24-0.4-0.33c-0.14-0.1-0.3-0.17-0.45-0.24L28.23,6.1
		L28.1,6.07c-0.1-0.03-0.18-0.05-0.26-0.07c-0.17-0.04-0.34-0.07-0.51-0.1l-0.05-0.01c-0.4-0.07-0.8-0.15-1.18-0.33
		c-0.1-0.05-0.2-0.11-0.28-0.15c-0.1-0.06-0.18-0.13-0.26-0.21l0,0c-0.18-0.17-0.3-0.37-0.36-0.59c-0.03-0.12-0.04-0.25-0.02-0.37
		c0.02-0.12,0.06-0.23,0.13-0.35c0.15-0.23,0.38-0.36,0.61-0.36c0,0,0.01,0,0.01,0c0.06,0,0.12,0.01,0.2,0.04
		c0.04,0.01,0.13,0.07,0.17,0.12c0.08,0.08,0.13,0.2,0.15,0.33c0.02,0.13,0,0.25-0.05,0.35c-0.06,0.12-0.18,0.21-0.31,0.21l-0.05,0
		l-0.03-0.03c-0.09-0.12-0.11-0.29-0.04-0.41l0.11,0.05c-0.02,0.06-0.02,0.14,0.02,0.2c0.1-0.06,0.13-0.21,0.1-0.33
		c-0.03-0.15-0.15-0.24-0.27-0.22c-0.15,0.01-0.26,0.13-0.32,0.24c-0.03,0.06-0.06,0.13-0.06,0.2c-0.01,0.07,0,0.13,0.03,0.21
		c0.04,0.13,0.14,0.26,0.27,0.37c0.06,0.05,0.13,0.1,0.2,0.14c0.07,0.04,0.15,0.08,0.23,0.11c0.33,0.13,0.71,0.19,1.07,0.24
		l0.06,0.01c0.17,0.02,0.35,0.05,0.53,0.08c0.09,0.02,0.19,0.04,0.3,0.07l0.16,0.04l0.14,0.05c0.18,0.07,0.39,0.16,0.58,0.29
		c0.17,0.11,0.34,0.25,0.5,0.41c0.48,0.48,0.79,1.12,0.86,1.8c0.12-0.05,0.24-0.08,0.36-0.09c0.26-0.04,0.54-0.01,0.86,0.09
		c0.15,0.05,0.28,0.1,0.39,0.16c0.06,0.03,0.12,0.06,0.18,0.1l0.01,0c0.06,0.04,0.11,0.07,0.17,0.11c0.12,0.09,0.22,0.17,0.32,0.27
		c0.1,0.09,0.2,0.2,0.28,0.3c0.09,0.12,0.17,0.22,0.24,0.34c0.08,0.13,0.14,0.24,0.19,0.36c0.05,0.12,0.1,0.24,0.14,0.38l0.01,0.04
		c0.03,0.12,0.06,0.23,0.07,0.36c0.02,0.13,0.02,0.26,0.02,0.39l0,0.01l-0.01,0.2c-0.01,0.05-0.01,0.09-0.02,0.13
		c0,0.02-0.01,0.04-0.01,0.07c-0.01,0.05-0.02,0.1-0.04,0.15c-0.01,0.02-0.01,0.03-0.02,0.05c-0.02,0.07-0.04,0.13-0.08,0.19
		c-0.04,0.1-0.11,0.2-0.17,0.29L33.36,12.05z M31.13,8.42c0.15,0,0.31,0.02,0.48,0.07c0.12,0.03,0.23,0.07,0.34,0.12
		c0.05,0.02,0.09,0.04,0.13,0.06l0.03,0.01c0.06,0.03,0.13,0.08,0.16,0.09c0.1,0.07,0.2,0.14,0.3,0.22
		c0.08,0.06,0.15,0.14,0.22,0.21l0.04,0.04c0.09,0.1,0.17,0.19,0.24,0.29c0.08,0.11,0.15,0.21,0.2,0.32
		c0.06,0.11,0.11,0.22,0.16,0.33l0.02,0.05c0.04,0.1,0.08,0.21,0.1,0.31c0.03,0.11,0.05,0.23,0.06,0.35l0,0.02l0,0.12l0.01-0.12
		l0-0.01c0-0.12,0-0.25-0.02-0.37c-0.01-0.12-0.04-0.23-0.07-0.34l-0.01-0.04c-0.04-0.13-0.08-0.25-0.14-0.36
		c-0.05-0.11-0.11-0.22-0.18-0.35c-0.06-0.11-0.14-0.21-0.23-0.32c-0.07-0.09-0.17-0.2-0.27-0.29c-0.09-0.09-0.19-0.17-0.31-0.26
		c-0.06-0.04-0.1-0.07-0.16-0.11l0,0c-0.06-0.03-0.12-0.07-0.17-0.1c-0.11-0.06-0.23-0.11-0.37-0.15c-0.31-0.09-0.57-0.11-0.81-0.08
		c-0.13,0.01-0.27,0.05-0.4,0.12L30.38,8.3l-0.01-0.09c-0.06-0.68-0.36-1.34-0.84-1.81c-0.15-0.15-0.31-0.28-0.48-0.39
		c-0.19-0.13-0.39-0.21-0.56-0.28l-0.13-0.04l-0.15-0.04c-0.11-0.03-0.2-0.05-0.29-0.06c-0.18-0.03-0.35-0.06-0.52-0.08l-0.06-0.01
		c-0.37-0.05-0.76-0.11-1.1-0.25c-0.09-0.03-0.17-0.08-0.25-0.12c-0.08-0.05-0.15-0.1-0.22-0.16c-0.15-0.13-0.26-0.28-0.31-0.43
		c-0.03-0.1-0.04-0.18-0.04-0.26c0.01-0.08,0.03-0.17,0.08-0.25c0.07-0.14,0.23-0.29,0.42-0.31c0.15-0.02,0.3,0.07,0.37,0.22
		c-0.02-0.05-0.05-0.11-0.1-0.16c-0.03-0.03-0.09-0.07-0.12-0.08c-0.06-0.02-0.1-0.03-0.16-0.03c0,0-0.01,0-0.01,0
		c-0.23,0-0.41,0.16-0.51,0.3c-0.06,0.1-0.1,0.19-0.11,0.3c-0.01,0.09-0.01,0.21,0.02,0.31c0.05,0.19,0.16,0.37,0.33,0.53l0,0
		c0.07,0.07,0.15,0.14,0.24,0.19c0.07,0.04,0.17,0.1,0.27,0.15c0.37,0.17,0.75,0.25,1.15,0.32l0.05,0.01
		c0.18,0.03,0.35,0.06,0.52,0.1c0.08,0.02,0.17,0.04,0.27,0.07l0.13,0.04l0.14,0.05c0.16,0.07,0.33,0.15,0.48,0.25
		c0.14,0.09,0.29,0.21,0.42,0.35c0.52,0.54,0.81,1.28,0.76,1.99l-0.03,0.42l0.3-0.3c0.07-0.07,0.15-0.14,0.26-0.2
		c0.11-0.05,0.21-0.09,0.32-0.1C30.98,8.43,31.05,8.42,31.13,8.42z"/>
</g>
<g>
	<path class="st0" d="M30.22,13.48c0.66-0.16,1.31-0.78,1.53-1.27c0.29-0.65,0.26-1.43,0.55-2.06c-0.03,0.04-0.06,0.07-0.09,0.1
		c-0.62,0.6-1.56,0.73-2.23,1.27c-0.29,0.24-0.71,0.77-0.81,1.24c0.2-0.19,0.4-0.35,0.52-0.42c0.66-0.39,1.55-0.51,1.92-1.19
		c-0.25,0.72-0.52,1.47-1.03,2.03C30.52,13.25,30.38,13.36,30.22,13.48z"/>
	<path class="st0" d="M29.9,13.62l0.28-0.2c0.18-0.12,0.3-0.23,0.36-0.3c0.42-0.46,0.67-1.06,0.88-1.63
		c-0.28,0.27-0.65,0.42-1.02,0.58c-0.23,0.09-0.46,0.19-0.67,0.31c-0.1,0.06-0.3,0.21-0.51,0.41l-0.15,0.14l0.04-0.2
		c0.1-0.5,0.54-1.05,0.83-1.28c0.32-0.25,0.69-0.42,1.06-0.58c0.41-0.18,0.84-0.37,1.16-0.69c0.03-0.03,0.06-0.06,0.09-0.09
		l0.32-0.41l-0.21,0.47c-0.14,0.31-0.2,0.66-0.26,1c-0.06,0.36-0.13,0.72-0.28,1.06c-0.22,0.49-0.89,1.13-1.58,1.31L29.9,13.62z
		 M31.56,11.11l0.12,0.05c-0.24,0.69-0.52,1.47-1.04,2.06c-0.02,0.02-0.04,0.04-0.06,0.06c0.51-0.25,0.96-0.72,1.13-1.1
		c0.14-0.32,0.21-0.68,0.27-1.03c0.05-0.25,0.09-0.51,0.17-0.76c-0.32,0.27-0.71,0.44-1.09,0.61c-0.36,0.16-0.73,0.32-1.03,0.56
		c-0.22,0.18-0.57,0.59-0.72,0.99c0.14-0.12,0.27-0.22,0.37-0.28c0.21-0.13,0.45-0.22,0.69-0.32
		C30.85,11.75,31.32,11.56,31.56,11.11z"/>
</g>
<g>
	<path class="st0" d="M28.76,9.11c0.12,0.26,0.24,0.52,0.28,0.8c0.02,0.17,0.02,0.35-0.01,0.53c0.15-0.43,0.15-1.26,0.05-1.65
		c-0.18-0.69-0.59-1.3-0.76-2c0.26,1.03-0.54,2.45,0.06,3.5c0.07,0.13,0.14,0.23,0.21,0.29c-0.02-0.14-0.03-0.27-0.02-0.36
		C28.57,9.84,28.67,9.47,28.76,9.11z"/>
	<path class="st0" d="M28.91,10.99l0.06-0.56C29,10.23,29,10.07,28.98,9.92c-0.03-0.21-0.11-0.42-0.2-0.62
		c-0.08,0.3-0.14,0.61-0.15,0.92c0,0.11,0.01,0.23,0.02,0.35l0.03,0.2l-0.14-0.15c-0.07-0.08-0.14-0.18-0.21-0.3
		c-0.36-0.62-0.24-1.36-0.13-2.07c0.08-0.52,0.16-1.01,0.06-1.44l0.12-0.03c0.09,0.35,0.24,0.68,0.38,1.01
		c0.14,0.32,0.29,0.65,0.38,0.99c0.11,0.4,0.11,1.24-0.05,1.68L28.91,10.99z M28.43,7.34c-0.01,0.29-0.06,0.6-0.11,0.93
		c-0.11,0.69-0.23,1.41,0.11,1.99c0.02,0.04,0.04,0.08,0.07,0.11c0-0.05,0-0.1,0-0.15c0.01-0.37,0.1-0.73,0.19-1.09l0.05-0.21
		l0.08,0.17c0.1,0.22,0.21,0.45,0.26,0.7c0.02-0.36,0-0.75-0.06-0.98c-0.09-0.34-0.23-0.66-0.37-0.97
		C28.57,7.68,28.5,7.51,28.43,7.34z"/>
</g>
<g>
	<path class="st0" d="M32.3,10.14c0.08-0.09,0.14-0.18,0.16-0.3C32.4,9.94,32.34,10.04,32.3,10.14z"/>
	<path class="st0" d="M32.07,10.5l0.17-0.38c0.05-0.11,0.1-0.21,0.17-0.31l0.2-0.29l-0.09,0.34c-0.03,0.11-0.09,0.22-0.18,0.32
		L32.07,10.5z"/>
</g>
<polyline class="st0" points="23.61,15.21 21.19,9.35 21.11,9.06 21.03,9.35 19.69,12.56 19.33,13.47 18.61,15.21 17.48,15.21 
	20.6,7.94 21.7,7.94 24.82,15.21 "/>
<g>
	<path class="st0" d="M19.91,12.37c0.4,0,1.21,0.27,1.59,0.27c0.22,0,0.38-0.11,0.47-0.27c0,0.37-0.15,0.81-0.49,0.81
		c-0.42,0-1.17-0.26-1.54-0.26c-0.22,0-0.38,0.1-0.51,0.3C19.44,12.77,19.6,12.37,19.91,12.37z"/>
</g>
</svg>
