<?xml version="1.0" encoding="utf-8"?>
<!-- Generator: Adobe Illustrator 24.1.0, SVG Export Plug-In . SVG Version: 6.00 Build 0)  -->
<svg version="1.1" id="Layer_1" xmlns="http://www.w3.org/2000/svg" xmlns:xlink="http://www.w3.org/1999/xlink" x="0px" y="0px"
	 viewBox="0 0 41.76 17.83" style="enable-background:new 0 0 41.76 17.83;" xml:space="preserve">
<style type="text/css">
	.st0{fill:#C69C6D;}
</style>
<path class="st0" d="M36.96,4.38c-1.17,0.96-2.6,1.45-4.27,1.45c-2.64,0-6.76-0.92-11.13-1.89c-4.38-0.98-8.91-1.99-11.91-1.99
	c-3.93,0-6.76,3.69-7.58,9.88l-0.72,5.51l4.07-3.79c1.31-1.21,2.83-1.78,4.79-1.78c2.41,0,6.17,0.86,10.15,1.77
	c4.35,0.99,8.85,2.02,12.09,2.02c3.93,0,6.84-3.49,7.77-9.33l0.83-5.22L36.96,4.38z"/>
</svg>
