<?xml version="1.0" encoding="utf-8"?>
<!-- Generator: Adobe Illustrator 24.1.0, SVG Export Plug-In . SVG Version: 6.00 Build 0)  -->
<svg version="1.1" id="Layer_1" xmlns="http://www.w3.org/2000/svg" xmlns:xlink="http://www.w3.org/1999/xlink" x="0px" y="0px"
	 viewBox="0 0 509.89 83.17" style="enable-background:new 0 0 509.89 83.17;" xml:space="preserve">
<style type="text/css">
	.st0{fill:#FFFFFF;}
	.st1{fill:#C69C6D;}
</style>
<polygon class="st0" points="24.09,52.75 39.7,15.18 41.62,8.5 43.54,15.19 71.57,83.17 83.61,83.17 47.93,0 36.28,0 0.6,83.17 
	11.66,83.17 19.77,63.41 "/>
<polygon class="st0" points="155.55,0 84.89,0 84.89,6.43 114.46,6.43 114.46,83.17 125.85,83.17 125.85,6.43 155.55,6.43 "/>
<polygon class="st0" points="236.94,0 166.28,0 166.28,6.43 195.85,6.43 195.85,83.17 207.23,83.17 207.23,6.43 236.94,6.43 "/>
<rect x="253.17" class="st0" width="10.83" height="83.17"/>
<polygon class="st0" points="284.82,0 284.82,83.17 338.49,83.17 338.59,76.74 296.21,76.74 296.21,0 "/>
<path class="st0" d="M391.7,84.58c6.07,0,11.88-1.08,17.28-3.21c5.39-2.13,10.18-5.15,14.26-8.98c4.07-3.83,7.35-8.43,9.75-13.67
	c2.39-5.23,3.6-11.03,3.6-17.25c0-6.68-1.21-12.75-3.6-18.01c-2.39-5.25-5.91-9.77-10.46-13.44c-4.57-3.68-10.3-6.53-17.01-8.48
	c-6.76-1.95-14.6-2.94-23.29-2.94c-4.04,0-8.77,0.25-14.06,0.76c-4.96,0.47-9.6,1.1-13.81,1.88v81.94h11.25V5.96l0.9-0.09
	c2.22-0.23,4.72-0.43,7.44-0.59c2.71-0.16,5.5-0.24,8.29-0.24c13.95,0,24.57,3.18,31.56,9.45c7.02,6.3,10.58,15.36,10.58,26.93
	c0,5.01-0.84,9.8-2.5,14.23c-1.67,4.43-4,8.36-6.96,11.68s-6.46,5.98-10.42,7.91c-3.98,1.93-8.33,2.91-12.92,2.91h-2.86
	c-0.83,0-2.02-0.08-3.52-0.24c-2.9-0.21-5.37,0.29-7.32,1.5c-1.56,0.97-2.89,2.15-3.98,3.52c3.4,0.67,6.36,1.11,8.83,1.32
	C385.55,84.46,388.57,84.58,391.7,84.58z"/>
<g>
	<path class="st0" d="M473.25,38.58c-1.31,1.16-2.41,2.51-3.28,4.05h31.82v-6.2h-21.46C477.25,36.43,474.87,37.16,473.25,38.58z"/>
	<polygon class="st0" points="506.53,6.43 506.53,0 450.79,0 450.79,83.17 508.62,83.17 508.62,76.74 462.04,76.74 462.04,6.43 	"/>
</g>
<path class="st1" d="M53.21,54.5c-1.17,0.96-2.6,1.45-4.27,1.45c-2.64,0-6.76-0.92-11.13-1.89c-4.38-0.98-8.91-1.99-11.91-1.99
	c-3.93,0-6.76,3.69-7.58,9.88l-0.72,5.51l4.07-3.79c1.31-1.21,2.83-1.78,4.79-1.78c2.41,0,6.17,0.86,10.15,1.77
	c4.35,0.99,8.85,2.02,12.09,2.02c3.93,0,6.84-3.49,7.77-9.33l0.83-5.22L53.21,54.5z"/>
</svg>
