<?xml version="1.0" encoding="utf-8"?>
<!-- Generator: Adobe Illustrator 24.1.0, SVG Export Plug-In . SVG Version: 6.00 Build 0)  -->
<svg version="1.1" id="Layer_1" xmlns="http://www.w3.org/2000/svg" xmlns:xlink="http://www.w3.org/1999/xlink" x="0px" y="0px"
	 viewBox="0 0 41.8 17.8" style="enable-background:new 0 0 41.8 17.8;" xml:space="preserve">
<style type="text/css">
	.st0{fill:#CEA676;}
</style>
<path class="st0" d="M37,4.4c-1.2,1-2.6,1.4-4.3,1.4c-2.6,0-6.8-0.9-11.1-1.9c-4.4-1-8.9-2-11.9-2c-3.9,0-6.8,3.7-7.6,9.9l-0.7,5.5
	l4.1-3.8c1.3-1.2,2.8-1.8,4.8-1.8c2.4,0,6.2,0.9,10.1,1.8c4.4,1,8.9,2,12.1,2c3.9,0,6.8-3.5,7.8-9.3L41,1L37,4.4z"/>
</svg>
